<svg id="svg" version="1.1" xmlns="http://www.w3.org/2000/svg" xmlns:xlink="http://www.w3.org/1999/xlink" width="400" height="263.55555555555554" viewBox="0, 0, 400,263.55555555555554"><g id="svgg"><path id="path0" d="M281.345 18.371 C 280.837 18.423,278.701 18.582,276.599 18.724 C 271.736 19.054,267.220 19.635,263.283 20.437 C 261.064 20.890,258.728 21.423,258.141 21.612 C 257.779 21.729,257.007 21.950,256.427 22.104 C 252.885 23.044,249.187 24.243,248.059 24.817 C 247.807 24.945,247.469 25.049,247.308 25.049 C 247.146 25.049,246.611 25.227,246.118 25.445 C 245.624 25.662,244.817 26.018,244.324 26.236 C 243.831 26.454,243.360 26.632,243.277 26.632 C 242.767 26.632,234.293 30.766,231.274 32.488 C 230.057 33.183,229.022 33.751,228.974 33.751 C 228.343 33.751,218.693 40.474,214.664 43.720 C 212.158 45.739,211.359 46.503,201.571 56.222 C 196.054 61.701,191.486 66.184,191.419 66.185 C 191.232 66.189,185.668 66.993,184.047 67.251 C 183.250 67.378,181.351 67.673,179.829 67.907 C 178.306 68.141,176.407 68.439,175.610 68.570 C 174.812 68.702,172.914 68.995,171.391 69.223 C 169.868 69.450,167.970 69.741,167.172 69.869 C 166.374 69.996,164.476 70.293,162.953 70.528 C 161.430 70.763,159.532 71.063,158.734 71.195 C 155.231 71.775,153.955 71.979,151.351 72.377 C 149.829 72.610,147.930 72.907,147.132 73.036 C 146.335 73.166,144.436 73.464,142.914 73.699 C 141.391 73.934,139.492 74.226,138.695 74.350 C 137.897 74.473,136.306 74.717,135.160 74.892 C 134.013 75.067,132.708 75.366,132.259 75.558 C 130.524 76.299,92.698 114.679,92.308 116.096 C 91.690 118.333,92.923 120.906,95.188 122.105 C 95.926 122.496,98.446 122.629,124.852 123.667 C 129.202 123.838,132.934 124.031,133.143 124.097 C 133.392 124.174,131.822 125.936,128.641 129.148 C 123.401 134.440,123.138 134.814,123.138 136.963 C 123.138 138.902,123.491 139.457,126.861 142.821 C 128.803 144.759,129.745 145.882,129.626 146.117 C 129.329 146.703,128.890 147.391,126.960 150.297 C 125.948 151.819,125.060 153.184,124.986 153.329 C 124.830 153.635,123.373 155.863,119.468 161.767 C 117.933 164.087,116.634 166.088,116.580 166.212 C 116.526 166.337,115.809 167.464,114.985 168.717 C 111.279 174.355,109.364 171.629,135.117 197.373 C 161.289 223.535,158.005 221.430,165.254 216.698 C 171.545 212.592,178.023 208.347,182.070 205.681 C 184.390 204.152,186.371 202.863,186.471 202.818 C 186.571 202.772,188.023 204.073,189.698 205.708 C 193.355 209.276,193.459 209.339,195.725 209.351 C 198.043 209.363,197.990 209.401,203.630 203.752 C 206.293 201.085,208.363 199.206,208.426 199.398 C 208.541 199.752,208.593 200.988,209.071 214.766 C 209.232 219.407,209.483 224.628,209.628 226.368 C 209.773 228.108,209.892 230.897,209.892 232.564 C 209.890 238.682,212.804 241.781,216.950 240.070 C 218.132 239.582,256.381 201.506,256.937 200.264 C 257.131 199.829,257.488 198.167,257.731 196.572 C 257.973 194.977,258.225 193.375,258.290 193.013 C 258.356 192.650,258.589 191.167,258.808 189.717 C 259.195 187.149,259.534 185.024,259.987 182.334 C 260.109 181.608,260.403 179.710,260.641 178.115 C 261.112 174.965,261.299 173.758,261.971 169.545 C 262.539 165.984,262.769 164.500,263.276 161.107 C 263.503 159.585,263.797 157.686,263.928 156.889 C 264.059 156.091,264.358 154.192,264.591 152.670 C 265.109 149.295,265.448 147.217,265.622 146.341 C 265.694 145.979,265.896 144.618,266.070 143.318 L 266.387 140.954 276.073 131.189 C 284.918 122.272,287.057 120.052,288.275 118.523 C 288.506 118.233,289.119 117.462,289.636 116.809 C 290.154 116.157,290.681 115.495,290.807 115.339 C 292.447 113.311,296.797 106.816,298.526 103.814 C 301.253 99.081,305.603 90.464,305.603 89.796 C 305.603 89.713,305.854 89.083,306.161 88.395 C 307.309 85.825,307.449 85.477,307.449 85.191 C 307.449 85.029,307.554 84.691,307.682 84.439 C 308.255 83.312,309.454 79.613,310.394 76.071 C 310.548 75.491,310.774 74.720,310.897 74.357 C 311.019 73.995,311.249 73.045,311.408 72.248 C 311.566 71.450,311.812 70.264,311.955 69.611 C 312.238 68.314,312.853 64.735,313.291 61.833 C 313.690 59.193,313.887 41.680,313.542 39.552 C 312.788 34.902,312.140 31.142,311.930 30.191 C 311.801 29.611,311.567 28.484,311.409 27.686 C 311.251 26.889,311.015 25.999,310.884 25.709 C 310.753 25.419,310.580 24.944,310.499 24.654 C 310.071 23.115,307.870 21.732,304.812 21.080 C 304.015 20.911,302.887 20.661,302.307 20.526 C 298.619 19.668,294.161 19.068,288.991 18.736 C 286.889 18.601,284.515 18.442,283.718 18.384 C 282.920 18.325,281.852 18.320,281.345 18.371 M291.233 29.271 C 296.075 29.806,300.817 30.698,301.279 31.159 C 301.782 31.662,302.682 36.329,303.227 41.266 C 303.549 44.172,303.538 55.512,303.211 58.405 C 302.642 63.441,301.790 68.296,301.104 70.402 C 300.986 70.765,300.813 71.477,300.720 71.984 C 300.522 73.060,300.407 73.441,299.015 77.653 C 297.637 81.820,297.299 82.749,297.082 82.966 C 296.983 83.065,296.902 83.290,296.902 83.466 C 296.902 85.153,290.255 97.723,286.171 103.757 C 280.668 111.889,279.695 112.958,257.515 135.195 C 247.502 145.235,239.172 153.719,239.004 154.048 C 237.247 157.495,239.736 161.485,243.639 161.475 C 245.895 161.470,246.089 161.347,250.165 157.327 C 253.920 153.624,253.848 153.639,253.378 156.625 C 253.230 157.568,252.998 159.051,252.864 159.921 C 252.636 161.403,252.085 164.903,251.556 168.227 C 251.320 169.708,250.648 174.107,250.367 176.005 C 250.281 176.585,250.103 177.653,249.971 178.378 C 249.840 179.103,249.543 181.002,249.311 182.597 C 249.079 184.192,248.782 186.091,248.650 186.816 C 248.519 187.541,248.220 189.499,247.986 191.167 C 247.752 192.835,247.505 194.500,247.437 194.868 C 247.286 195.684,220.327 222.746,220.073 222.335 C 219.981 222.187,219.845 220.245,219.771 218.020 C 219.697 215.795,219.521 211.898,219.382 209.361 C 219.242 206.823,218.986 201.209,218.814 196.886 L 218.501 189.026 226.029 181.461 C 233.953 173.498,233.982 173.463,234.263 171.767 C 234.798 168.533,232.448 165.801,229.130 165.801 C 226.922 165.801,227.616 165.190,211.074 181.702 L 195.779 196.968 182.608 183.794 C 175.363 176.549,169.490 170.563,169.557 170.492 C 169.623 170.421,183.689 156.326,200.815 139.169 C 233.406 106.520,232.678 107.281,232.913 105.603 C 233.396 102.152,231.217 99.593,227.797 99.593 C 225.451 99.593,228.677 96.567,193.408 131.840 L 162.030 163.221 148.848 150.036 L 135.667 136.851 150.863 121.623 C 167.505 104.945,166.750 105.817,166.733 103.305 C 166.709 99.764,163.784 97.533,160.250 98.360 C 158.917 98.672,158.583 98.966,151.169 106.337 L 143.471 113.990 138.908 113.808 C 136.398 113.707,131.793 113.514,128.675 113.379 C 125.557 113.245,120.112 113.015,116.575 112.870 C 113.039 112.725,110.077 112.538,109.995 112.456 C 109.912 112.373,115.950 106.200,123.413 98.738 L 136.981 85.171 139.881 84.752 C 141.477 84.522,143.375 84.234,144.100 84.113 C 144.825 83.991,146.190 83.772,147.132 83.625 C 148.857 83.357,153.140 82.682,155.834 82.254 C 156.632 82.127,158.530 81.832,160.053 81.599 C 161.575 81.365,163.474 81.068,164.272 80.939 C 165.069 80.811,166.908 80.528,168.359 80.312 C 169.809 80.095,171.737 79.794,172.643 79.643 C 175.922 79.095,177.597 78.850,178.111 78.845 C 178.483 78.841,177.724 79.752,175.474 82.010 L 172.314 85.180 176.102 88.897 L 179.890 92.613 198.910 73.649 C 217.604 55.010,219.531 53.133,221.602 51.549 C 222.171 51.114,223.001 50.455,223.447 50.084 C 230.498 44.227,243.543 37.279,254.450 33.572 C 257.301 32.603,257.942 32.414,260.646 31.742 C 261.516 31.526,262.703 31.229,263.283 31.083 C 265.782 30.452,270.157 29.709,273.830 29.292 C 276.384 29.001,288.663 28.987,291.233 29.271 M258.009 46.935 C 257.719 47.059,257.175 47.170,256.799 47.180 C 249.892 47.367,240.396 56.107,238.299 64.206 C 237.432 67.553,237.310 68.381,237.310 70.929 C 237.310 73.476,237.453 74.454,238.271 77.521 C 240.372 85.402,247.096 92.127,254.977 94.228 C 258.044 95.045,259.023 95.188,261.569 95.188 C 264.116 95.188,264.938 95.067,268.293 94.200 C 283.573 90.252,290.674 71.502,282.049 57.877 C 278.847 52.818,273.506 48.905,268.009 47.589 C 267.005 47.349,265.819 47.044,265.374 46.912 C 264.361 46.611,258.721 46.629,258.009 46.935 M265.920 57.803 C 278.402 62.057,278.532 79.493,266.114 83.997 C 264.213 84.687,258.631 84.957,258.273 84.377 C 258.183 84.232,257.895 84.113,257.632 84.113 C 254.729 84.113,249.863 79.441,248.463 75.307 C 244.846 64.632,255.274 54.175,265.920 57.803 M146.135 162.154 L 154.569 170.583 153.145 172.108 C 150.477 174.965,150.321 177.803,152.715 179.960 C 155.177 182.179,157.797 181.996,160.449 179.418 C 161.113 178.774,161.787 178.247,161.948 178.247 C 162.361 178.247,178.774 194.759,178.773 195.175 C 178.773 195.363,178.210 195.870,177.521 196.300 C 176.208 197.120,170.426 200.884,164.078 205.051 C 162.014 206.406,160.233 207.515,160.120 207.515 C 159.585 207.515,124.929 172.483,125.129 172.144 C 125.246 171.947,126.714 169.710,128.392 167.172 C 130.071 164.634,131.503 162.439,131.577 162.294 C 131.650 162.149,132.172 161.318,132.737 160.448 C 135.910 155.565,137.195 153.724,137.434 153.724 C 137.581 153.724,141.496 157.518,146.135 162.154 M109.426 183.165 C 108.020 183.446,86.895 205.078,86.578 206.563 C 86.031 209.125,87.560 211.812,90.060 212.682 C 91.286 213.108,92.716 213.161,92.947 212.788 C 93.036 212.643,93.349 212.525,93.641 212.525 C 94.278 212.525,115.640 191.238,116.029 190.216 C 117.629 186.008,114.095 182.235,109.426 183.165 M125.115 199.750 C 123.701 200.475,95.783 228.590,95.158 229.918 C 93.088 234.321,98.484 238.948,102.585 236.286 C 105.147 234.623,132.029 207.233,132.372 205.935 C 133.539 201.515,129.082 197.716,125.115 199.750 M142.254 216.649 C 141.100 217.250,120.821 237.529,120.219 238.684 C 117.809 243.313,123.795 248.136,128.042 244.985 C 130.589 243.096,148.680 224.533,149.227 223.248 C 151.028 219.014,146.303 214.542,142.254 216.649 " stroke="none" fill="#15153d" fill-rule="evenodd"></path><path id="path1" d="M0.000 131.839 L 0.000 263.678 200.000 263.678 L 400.000 263.678 400.000 131.839 L 400.000 0.000 200.000 0.000 L 0.000 0.000 0.000 131.839 M293.342 18.583 C 293.777 18.663,294.904 18.835,295.847 18.965 C 299.854 19.520,301.544 19.820,301.974 20.054 C 302.226 20.191,302.633 20.303,302.878 20.303 C 303.124 20.303,303.689 20.413,304.134 20.546 C 304.580 20.680,305.656 20.991,306.526 21.238 C 309.529 22.088,311.011 23.767,311.638 27.027 C 311.778 27.752,312.138 29.461,312.439 30.824 C 312.740 32.188,312.986 33.694,312.986 34.171 C 312.986 34.648,313.090 35.103,313.218 35.181 C 313.921 35.616,314.227 59.001,313.576 62.558 C 313.397 63.537,313.135 65.115,312.995 66.065 C 312.854 67.016,312.618 68.232,312.469 68.768 C 312.320 69.304,312.197 70.122,312.197 70.584 C 312.196 71.047,312.076 71.499,311.931 71.589 C 311.786 71.678,311.668 72.087,311.668 72.497 C 311.668 73.176,311.125 75.288,310.613 76.599 C 310.500 76.889,310.203 77.897,309.954 78.840 C 309.704 79.782,309.411 80.791,309.302 81.081 C 309.194 81.371,308.886 82.320,308.619 83.191 C 308.352 84.061,308.048 84.951,307.945 85.168 C 307.392 86.330,306.922 87.520,306.922 87.754 C 306.922 87.900,306.691 88.475,306.410 89.032 C 306.128 89.590,305.464 90.995,304.934 92.156 C 303.568 95.146,301.777 98.766,300.823 100.461 C 300.375 101.259,299.648 102.560,299.207 103.352 C 298.766 104.144,298.008 105.414,297.522 106.174 C 297.036 106.934,296.638 107.625,296.638 107.711 C 296.638 107.797,296.518 108.010,296.372 108.185 C 296.226 108.360,295.194 109.809,294.078 111.404 C 292.963 112.999,291.837 114.535,291.576 114.816 C 291.315 115.097,291.101 115.415,291.101 115.522 C 291.101 115.629,290.951 115.874,290.767 116.066 C 290.584 116.257,290.021 116.948,289.516 117.601 C 287.383 120.359,284.826 123.065,275.144 132.810 C 266.061 141.952,266.658 141.107,266.048 145.682 C 265.874 146.987,265.631 148.649,265.508 149.374 C 265.385 150.099,265.214 151.107,265.128 151.615 C 265.043 152.123,264.794 153.724,264.576 155.175 C 264.358 156.625,264.075 158.405,263.948 159.130 C 263.820 159.855,263.572 161.516,263.395 162.821 C 263.039 165.453,262.789 167.053,262.362 169.413 C 262.021 171.297,261.342 175.640,261.041 177.851 C 260.642 180.789,259.996 184.962,259.735 186.289 C 259.593 187.014,259.280 188.912,259.040 190.508 C 258.500 194.096,258.233 195.854,257.919 197.891 C 257.586 200.051,257.205 200.800,255.511 202.614 C 250.569 207.905,218.187 239.972,217.649 240.107 C 217.296 240.196,217.007 240.374,217.007 240.503 C 217.007 240.633,216.177 240.738,215.162 240.738 C 214.107 240.738,213.316 240.625,213.316 240.475 C 213.316 240.330,213.078 240.211,212.788 240.211 C 212.156 240.211,210.152 238.223,210.152 237.595 C 210.152 237.352,210.050 237.040,209.925 236.902 C 209.602 236.545,209.089 225.777,208.398 204.878 C 208.318 202.485,208.169 200.436,208.064 200.325 C 207.960 200.214,205.985 202.029,203.674 204.359 C 198.457 209.619,197.170 210.400,194.730 209.791 C 193.061 209.374,192.615 209.053,189.589 206.093 C 186.292 202.866,186.709 203.039,185.067 204.219 C 184.361 204.726,183.674 205.142,183.541 205.142 C 183.409 205.142,183.261 205.233,183.212 205.343 C 183.164 205.454,181.819 206.366,180.224 207.370 C 176.449 209.745,170.505 213.641,170.336 213.850 C 170.264 213.941,169.789 214.243,169.281 214.522 C 168.774 214.801,168.299 215.093,168.227 215.171 C 167.952 215.467,161.733 219.283,161.029 219.588 C 159.899 220.078,158.120 219.976,156.955 219.354 C 155.040 218.331,113.269 176.200,112.902 174.920 C 112.321 172.894,112.610 171.558,114.079 169.479 C 114.565 168.789,114.964 168.107,114.964 167.962 C 114.964 167.818,115.082 167.699,115.227 167.699 C 115.372 167.699,115.491 167.578,115.491 167.429 C 115.491 167.181,117.523 163.783,117.852 163.481 C 118.039 163.310,121.799 157.640,122.749 156.098 C 123.151 155.445,123.565 154.852,123.668 154.779 C 123.771 154.707,124.042 154.283,124.270 153.838 C 124.498 153.393,125.701 151.511,126.943 149.656 C 129.699 145.543,129.749 146.202,126.429 142.934 C 120.928 137.519,121.088 136.160,128.058 129.168 C 133.221 123.987,133.178 124.201,129.071 124.200 C 127.475 124.200,123.975 124.079,121.292 123.931 C 116.856 123.686,106.380 123.230,99.011 122.961 C 95.775 122.843,93.739 122.131,93.072 120.884 C 92.881 120.528,92.627 120.237,92.507 120.237 C 92.386 120.237,92.287 120.007,92.287 119.726 C 92.287 119.444,92.169 119.140,92.024 119.051 C 91.402 118.666,91.827 115.325,92.577 114.700 C 92.664 114.628,92.784 114.417,92.844 114.231 C 93.054 113.574,130.671 76.150,131.781 75.493 C 132.402 75.126,133.618 74.720,134.484 74.591 C 137.889 74.085,139.117 73.882,139.750 73.718 C 140.112 73.625,141.417 73.438,142.650 73.304 C 144.857 73.063,145.590 72.953,150.560 72.117 C 151.938 71.886,153.777 71.588,154.647 71.456 C 155.517 71.324,156.941 71.102,157.811 70.962 C 158.682 70.823,160.283 70.575,161.371 70.411 C 162.459 70.248,163.942 69.999,164.667 69.858 C 165.392 69.717,166.994 69.471,168.227 69.311 C 169.459 69.151,171.121 68.921,171.918 68.800 C 172.716 68.679,174.187 68.458,175.187 68.310 C 176.187 68.162,177.221 67.971,177.486 67.888 C 177.750 67.804,178.771 67.627,179.755 67.495 C 180.738 67.363,182.314 67.128,183.256 66.973 C 184.199 66.818,186.157 66.530,187.607 66.333 C 189.057 66.135,190.565 65.873,190.956 65.749 C 191.364 65.620,195.879 61.347,201.504 55.767 C 211.813 45.538,212.373 45.020,216.776 41.658 C 218.281 40.509,219.637 39.463,219.790 39.334 C 219.943 39.206,220.595 38.757,221.240 38.337 C 221.885 37.918,222.641 37.368,222.921 37.116 C 223.200 36.864,223.645 36.589,223.909 36.505 C 224.174 36.421,224.390 36.241,224.390 36.106 C 224.390 35.971,224.510 35.860,224.657 35.860 C 224.803 35.860,225.870 35.267,227.027 34.542 C 228.184 33.817,229.197 33.223,229.278 33.223 C 229.359 33.223,230.043 32.836,230.797 32.363 C 231.552 31.889,232.643 31.266,233.223 30.978 C 233.804 30.690,234.338 30.395,234.410 30.323 C 234.483 30.250,234.838 30.053,235.201 29.886 C 235.564 29.719,236.632 29.226,237.574 28.790 C 242.343 26.586,243.765 25.959,245.748 25.186 C 246.401 24.931,247.172 24.629,247.462 24.514 C 247.752 24.399,248.642 24.112,249.440 23.876 C 250.237 23.640,251.127 23.346,251.417 23.222 C 252.259 22.863,254.739 22.149,255.143 22.149 C 255.345 22.149,255.717 22.041,255.969 21.910 C 256.776 21.488,259.232 20.831,260.002 20.831 C 260.411 20.831,260.812 20.724,260.892 20.595 C 260.973 20.465,261.484 20.291,262.029 20.208 C 262.573 20.124,264.146 19.874,265.524 19.650 C 267.839 19.275,269.424 19.051,273.962 18.458 C 275.747 18.225,291.960 18.330,293.342 18.583 M258.668 57.736 C 258.451 57.882,258.063 58.003,257.806 58.005 C 255.667 58.024,250.990 61.856,249.596 64.733 C 244.423 75.406,254.016 87.059,265.380 83.906 C 269.381 82.797,274.489 77.601,274.489 74.642 C 274.489 74.358,274.608 74.051,274.753 73.962 C 274.902 73.869,275.016 72.558,275.016 70.929 C 275.016 69.301,274.902 67.990,274.753 67.897 C 274.608 67.808,274.489 67.501,274.489 67.217 C 274.489 64.211,269.434 59.122,265.260 57.925 C 263.962 57.553,259.149 57.415,258.668 57.736 M136.551 155.682 C 136.067 156.490,135.580 157.152,135.469 157.152 C 135.358 157.152,135.267 157.257,135.267 157.386 C 135.267 157.684,133.111 160.946,132.836 161.064 C 132.723 161.112,132.630 161.319,132.630 161.525 C 132.630 161.730,132.514 161.898,132.372 161.898 C 132.229 161.898,132.040 162.190,131.950 162.547 C 131.861 162.903,131.609 163.344,131.390 163.525 C 131.172 163.706,130.887 164.097,130.758 164.393 C 130.502 164.976,129.945 165.905,129.724 166.117 C 129.648 166.190,129.058 167.080,128.411 168.095 C 127.765 169.110,127.174 170.000,127.099 170.073 C 126.903 170.260,126.331 171.187,126.122 171.655 C 126.024 171.872,125.835 172.124,125.701 172.214 C 125.567 172.304,133.247 180.178,142.768 189.712 L 160.078 207.045 161.582 206.028 C 162.409 205.468,163.204 204.962,163.349 204.903 C 163.494 204.844,163.980 204.518,164.428 204.178 C 164.877 203.838,165.381 203.560,165.549 203.560 C 165.717 203.560,165.854 203.460,165.854 203.338 C 165.854 203.215,166.297 202.889,166.838 202.612 C 167.380 202.336,167.970 201.973,168.150 201.806 C 168.329 201.639,168.925 201.230,169.472 200.897 C 170.020 200.564,170.527 200.226,170.600 200.146 C 170.777 199.949,171.693 199.379,172.182 199.161 C 172.399 199.063,172.637 198.904,172.709 198.807 C 172.782 198.709,173.672 198.111,174.687 197.478 C 175.702 196.844,176.572 196.233,176.621 196.119 C 176.669 196.006,176.825 195.913,176.966 195.913 C 177.108 195.913,177.484 195.720,177.801 195.483 C 178.371 195.059,178.280 194.955,170.576 187.243 C 166.285 182.948,162.598 179.287,162.382 179.109 C 162.057 178.840,161.770 178.988,160.721 179.966 C 160.023 180.615,159.301 181.147,159.115 181.147 C 158.930 181.147,158.729 181.295,158.668 181.477 C 158.592 181.707,157.858 181.806,156.229 181.806 C 154.600 181.806,153.867 181.707,153.790 181.477 C 153.730 181.295,153.542 181.143,153.373 181.138 C 153.204 181.133,152.825 180.926,152.532 180.677 C 149.905 178.446,149.960 174.419,152.653 171.799 C 153.242 171.226,153.724 170.681,153.724 170.589 C 153.724 170.439,139.752 156.342,138.099 154.825 L 137.431 154.211 136.551 155.682 M113.844 183.195 C 113.904 183.374,114.063 183.520,114.197 183.520 C 114.535 183.520,115.876 184.848,116.243 185.546 C 116.847 186.696,116.624 189.924,115.862 191.046 C 115.072 192.210,95.386 211.961,94.397 212.581 C 90.485 215.036,85.173 211.070,86.236 206.488 C 86.578 205.015,86.619 204.970,97.278 194.271 C 103.162 188.365,108.332 183.348,108.767 183.123 C 109.742 182.619,113.671 182.674,113.844 183.195 M130.357 199.658 C 131.412 200.386,132.103 201.091,132.103 201.439 C 132.103 201.590,132.197 201.714,132.312 201.714 C 132.860 201.714,133.350 205.035,132.925 205.870 C 132.797 206.122,132.551 206.633,132.379 207.005 C 131.752 208.358,103.069 236.661,101.840 237.137 C 97.333 238.886,92.624 233.645,94.954 229.474 C 95.533 228.437,123.546 200.293,124.739 199.549 C 126.167 198.659,128.989 198.714,130.357 199.658 M147.143 216.546 C 149.573 217.838,150.669 220.924,149.615 223.501 C 149.318 224.227,146.097 227.624,138.458 235.267 L 127.719 246.012 124.967 246.002 C 121.883 245.992,121.479 245.807,120.133 243.800 C 119.348 242.627,119.165 239.565,119.811 238.400 C 120.393 237.350,141.140 216.718,141.988 216.344 C 143.313 215.762,145.857 215.861,147.143 216.546 " stroke="none" fill="#f7f7f7" fill-rule="evenodd"></path><path id="path2" d="M175.742 79.123 C 175.016 79.243,173.652 79.471,172.709 79.629 C 171.767 79.788,169.809 80.095,168.359 80.312 C 166.908 80.528,165.069 80.811,164.272 80.939 C 163.474 81.068,161.575 81.365,160.053 81.599 C 158.530 81.832,156.632 82.127,155.834 82.254 C 153.140 82.682,148.857 83.357,147.132 83.625 C 146.190 83.772,144.825 83.991,144.100 84.113 C 143.375 84.234,141.477 84.522,139.881 84.752 L 136.981 85.171 123.413 98.738 C 115.950 106.200,109.912 112.373,109.995 112.456 C 110.077 112.538,113.039 112.725,116.575 112.870 C 120.112 113.015,125.557 113.245,128.675 113.379 C 131.793 113.514,136.398 113.707,138.908 113.808 L 143.471 113.990 151.169 106.337 C 158.583 98.966,158.917 98.672,160.250 98.360 C 161.861 97.983,163.866 98.331,164.732 99.137 C 165.240 99.611,165.353 99.517,170.623 94.242 L 175.996 88.864 174.160 87.015 L 172.325 85.165 175.479 82.002 C 178.953 78.520,178.946 78.594,175.742 79.123 M250.362 157.162 C 245.804 161.745,243.687 162.585,240.955 160.896 L 240.010 160.312 236.551 163.773 C 232.911 167.414,232.878 167.458,233.458 167.939 C 234.356 168.684,234.570 171.874,233.821 173.368 C 233.676 173.659,230.169 177.300,226.029 181.461 L 218.501 189.026 218.814 196.886 C 218.986 201.209,219.242 206.823,219.382 209.361 C 219.521 211.898,219.697 215.795,219.771 218.020 C 219.845 220.245,219.981 222.187,220.073 222.335 C 220.327 222.746,247.286 195.684,247.437 194.868 C 247.505 194.500,247.752 192.835,247.986 191.167 C 248.220 189.499,248.519 187.541,248.650 186.816 C 248.782 186.091,249.079 184.192,249.311 182.597 C 249.543 181.002,249.840 179.103,249.971 178.378 C 250.103 177.653,250.281 176.585,250.367 176.005 C 250.648 174.107,251.320 169.708,251.556 168.227 C 253.374 156.804,253.707 154.530,253.608 154.231 C 253.562 154.094,252.101 155.413,250.362 157.162 " stroke="none" fill="#ea3b44" fill-rule="evenodd"></path><path id="path3" d="M276.008 18.380 C 276.336 18.443,276.811 18.441,277.063 18.375 C 277.315 18.309,277.047 18.257,276.467 18.260 C 275.887 18.263,275.680 18.317,276.008 18.380 M288.266 18.376 C 288.520 18.442,288.935 18.442,289.189 18.376 C 289.443 18.309,289.235 18.255,288.728 18.255 C 288.220 18.255,288.013 18.309,288.266 18.376 M273.237 18.646 C 273.635 18.707,274.288 18.707,274.687 18.646 C 275.086 18.586,274.759 18.536,273.962 18.536 C 273.164 18.536,272.838 18.586,273.237 18.646 M290.903 18.646 C 291.302 18.707,291.955 18.707,292.353 18.646 C 292.752 18.586,292.426 18.536,291.628 18.536 C 290.831 18.536,290.504 18.586,290.903 18.646 M268.029 19.249 C 267.357 19.537,268.050 19.537,268.952 19.249 C 269.482 19.079,269.508 19.036,269.084 19.030 C 268.794 19.025,268.319 19.124,268.029 19.249 M296.770 19.249 C 297.060 19.373,297.535 19.475,297.825 19.475 L 298.352 19.475 297.825 19.249 C 297.535 19.124,297.060 19.022,296.770 19.022 L 296.243 19.022 296.770 19.249 M263.151 20.043 C 262.873 20.226,263.029 20.252,263.678 20.133 C 264.816 19.924,265.030 19.775,264.184 19.780 C 263.833 19.782,263.368 19.901,263.151 20.043 M300.593 19.878 C 300.593 19.934,300.943 20.031,301.370 20.094 C 301.798 20.156,302.087 20.111,302.014 19.992 C 301.883 19.780,300.593 19.677,300.593 19.878 M258.178 21.133 C 257.691 21.273,257.342 21.437,257.402 21.498 C 257.535 21.631,259.459 21.119,259.459 20.950 C 259.459 20.795,259.250 20.825,258.178 21.133 M278.402 29.134 C 278.306 29.231,276.882 29.420,275.237 29.554 C 272.226 29.800,268.245 30.343,266.051 30.807 C 265.399 30.945,264.153 31.199,263.283 31.373 C 262.413 31.546,261.463 31.787,261.173 31.909 C 260.883 32.030,260.349 32.185,259.987 32.252 C 259.228 32.394,255.628 33.444,254.845 33.752 C 254.555 33.865,253.724 34.158,252.999 34.403 C 252.274 34.647,251.444 34.942,251.154 35.058 C 250.864 35.175,250.092 35.478,249.440 35.732 C 248.787 35.987,247.627 36.475,246.862 36.818 C 246.096 37.162,245.295 37.442,245.082 37.442 C 244.868 37.442,244.693 37.561,244.693 37.706 C 244.693 37.851,244.545 37.969,244.364 37.969 C 244.056 37.968,238.655 40.581,238.365 40.870 C 238.293 40.943,237.759 41.239,237.179 41.529 C 236.599 41.819,235.206 42.620,234.085 43.309 C 232.964 43.998,231.935 44.562,231.800 44.562 C 231.664 44.562,231.514 44.658,231.466 44.777 C 231.381 44.984,227.698 47.483,227.159 47.699 C 227.014 47.757,226.836 47.877,226.763 47.965 C 226.691 48.052,225.920 48.648,225.049 49.289 C 224.179 49.929,223.099 50.759,222.648 51.133 C 222.197 51.507,221.545 52.038,221.198 52.314 C 218.830 54.195,215.099 57.832,198.645 74.291 C 188.461 84.479,180.008 92.815,179.861 92.815 C 179.714 92.815,178.823 92.044,177.880 91.101 C 175.711 88.931,176.431 88.608,170.754 94.296 C 165.400 99.659,165.601 99.367,166.447 100.553 C 167.336 101.799,167.306 104.960,166.393 106.262 C 166.037 106.770,159.072 113.866,150.915 122.031 L 136.085 136.878 149.018 149.828 L 161.952 162.778 193.285 131.422 C 214.028 110.664,224.958 99.907,225.625 99.595 C 229.227 97.909,233.217 100.580,233.221 104.680 C 233.224 107.386,235.691 104.723,200.994 139.474 C 183.987 156.508,170.073 170.549,170.073 170.676 C 170.073 170.804,175.836 176.670,182.879 183.712 L 195.686 196.516 210.763 181.408 C 228.264 163.872,227.952 164.102,231.663 165.984 C 233.394 166.863,233.046 167.035,236.548 163.573 L 239.655 160.502 239.097 159.421 C 238.140 157.566,238.102 157.449,238.102 156.387 C 238.102 154.033,238.074 154.064,257.909 134.198 C 268.261 123.830,277.442 114.523,278.312 113.514 C 279.183 112.506,280.132 111.421,280.422 111.104 C 280.712 110.786,281.721 109.478,282.663 108.197 C 283.606 106.915,284.466 105.827,284.575 105.779 C 284.684 105.731,284.773 105.591,284.773 105.469 C 284.773 105.188,286.945 101.942,287.212 101.824 C 287.320 101.775,287.409 101.568,287.409 101.362 C 287.409 101.157,287.528 100.989,287.673 100.989 C 287.818 100.989,287.937 100.872,287.937 100.730 C 287.937 100.587,288.429 99.668,289.031 98.686 C 290.633 96.074,291.004 95.395,292.821 91.760 C 295.030 87.339,295.683 85.863,297.433 81.345 C 297.545 81.055,297.837 80.224,298.081 79.499 C 298.325 78.774,298.621 77.943,298.739 77.653 C 299.036 76.924,300.032 73.496,300.501 71.589 C 300.866 70.103,301.030 69.386,301.676 66.447 C 303.575 57.804,303.811 47.070,302.320 37.179 C 301.487 31.652,301.312 31.209,299.865 30.982 C 299.323 30.897,298.464 30.716,297.956 30.579 C 294.769 29.724,278.974 28.556,278.402 29.134 M313.645 49.862 C 313.645 56.391,313.723 61.459,313.817 61.124 C 314.046 60.309,314.053 39.017,313.825 38.441 C 313.726 38.193,313.645 43.332,313.645 49.862 M265.766 46.688 C 266.721 46.843,267.739 47.071,268.029 47.195 C 268.319 47.319,268.907 47.498,269.335 47.592 C 275.337 48.909,282.299 55.769,284.783 62.816 C 286.306 67.135,286.561 74.167,285.313 77.390 C 285.200 77.680,284.895 78.559,284.635 79.344 C 282.482 85.833,276.481 91.840,270.007 93.988 C 269.209 94.252,268.319 94.561,268.029 94.673 C 265.528 95.642,257.539 95.645,255.109 94.679 C 254.819 94.563,253.929 94.252,253.131 93.988 C 250.521 93.122,247.667 91.430,245.370 89.387 C 243.553 87.771,241.276 85.184,241.270 84.729 C 241.268 84.559,241.162 84.381,241.036 84.333 C 240.700 84.204,238.629 80.124,238.629 79.590 C 238.629 79.340,238.510 79.061,238.365 78.972 C 238.220 78.882,238.102 78.543,238.102 78.218 C 238.102 77.893,238.000 77.514,237.875 77.376 C 236.863 76.257,236.823 66.967,237.819 64.469 C 237.935 64.179,238.246 63.289,238.511 62.492 C 240.649 56.046,246.681 50.013,253.131 47.870 C 253.929 47.605,254.759 47.322,254.977 47.240 C 256.992 46.484,262.702 46.192,265.766 46.688 M207.114 50.165 L 204.483 52.868 207.185 50.236 C 208.672 48.788,209.888 47.572,209.888 47.533 C 209.888 47.342,209.559 47.655,207.114 50.165 M197.625 59.657 L 191.562 65.788 197.693 59.725 C 203.389 54.092,203.942 53.527,203.755 53.527 C 203.718 53.527,200.959 56.285,197.625 59.657 M313.280 63.327 C 313.264 63.569,313.182 63.984,313.098 64.250 C 312.954 64.708,312.962 64.709,313.248 64.263 C 313.413 64.005,313.495 63.590,313.430 63.340 C 313.323 62.932,313.308 62.931,313.280 63.327 M185.827 66.633 C 186.154 66.696,186.688 66.696,187.014 66.633 C 187.340 66.570,187.073 66.519,186.421 66.519 C 185.768 66.519,185.501 66.570,185.827 66.633 M181.674 67.238 C 181.150 67.577,181.809 67.577,182.597 67.238 L 183.125 67.011 182.597 66.997 C 182.307 66.989,181.892 67.097,181.674 67.238 M178.115 67.765 C 177.404 67.946,177.391 67.967,177.983 67.972 C 178.345 67.974,178.939 67.881,179.301 67.765 C 180.187 67.482,179.230 67.482,178.115 67.765 M173.500 68.568 C 173.211 68.764,173.318 68.788,173.896 68.659 C 174.865 68.442,175.076 68.291,174.401 68.297 C 174.123 68.299,173.718 68.421,173.500 68.568 M170.073 69.084 C 169.543 69.253,169.517 69.296,169.941 69.303 C 170.231 69.307,170.705 69.208,170.995 69.084 C 171.667 68.795,170.974 68.795,170.073 69.084 M164.667 69.887 C 164.300 70.054,164.459 70.077,165.194 69.965 C 165.775 69.877,166.299 69.761,166.359 69.708 C 166.586 69.508,165.173 69.658,164.667 69.887 M161.107 70.402 C 160.206 70.592,160.203 70.597,160.976 70.613 C 161.411 70.621,162.004 70.527,162.294 70.402 C 162.928 70.130,162.402 70.130,161.107 70.402 M311.962 70.578 C 311.945 70.748,311.855 71.104,311.761 71.369 C 311.628 71.744,311.663 71.785,311.917 71.551 C 312.097 71.385,312.188 71.029,312.119 70.760 C 312.049 70.491,311.979 70.409,311.962 70.578 M152.933 71.721 C 152.411 71.888,152.384 71.932,152.802 71.932 C 153.092 71.932,153.626 71.837,153.988 71.721 C 154.510 71.553,154.538 71.509,154.120 71.509 C 153.830 71.509,153.296 71.604,152.933 71.721 M149.044 72.430 C 149.298 72.496,149.713 72.496,149.967 72.430 C 150.221 72.363,150.013 72.309,149.506 72.309 C 148.998 72.309,148.790 72.363,149.044 72.430 M311.188 73.878 C 311.032 74.495,310.949 75.045,311.005 75.101 C 311.060 75.156,311.240 74.703,311.404 74.094 C 311.568 73.484,311.651 72.934,311.588 72.871 C 311.525 72.808,311.345 73.261,311.188 73.878 M140.672 73.566 L 139.618 73.755 140.541 73.761 C 141.048 73.765,141.819 73.677,142.254 73.566 C 143.327 73.293,142.197 73.293,140.672 73.566 M136.058 74.357 C 135.554 74.683,136.096 74.683,137.113 74.357 L 137.772 74.146 137.113 74.124 C 136.750 74.112,136.276 74.217,136.058 74.357 M133.026 74.885 C 132.693 75.027,132.645 75.111,132.894 75.111 C 133.111 75.111,133.527 75.009,133.817 74.885 C 134.149 74.742,134.198 74.658,133.949 74.658 C 133.731 74.658,133.316 74.760,133.026 74.885 M111.920 94.933 C 101.485 105.379,92.892 114.011,92.825 114.115 C 92.759 114.219,101.332 105.702,111.876 95.189 C 122.421 84.675,131.048 76.043,131.048 76.006 C 131.048 75.804,129.352 77.482,111.920 94.933 M308.533 82.824 C 308.370 83.290,308.284 83.718,308.340 83.774 C 308.397 83.830,308.576 83.495,308.738 83.029 C 308.900 82.563,308.987 82.136,308.931 82.080 C 308.874 82.023,308.695 82.358,308.533 82.824 M91.936 115.667 C 91.694 115.909,91.713 118.859,91.958 119.010 C 92.067 119.077,92.156 118.313,92.156 117.312 C 92.156 116.310,92.146 115.491,92.134 115.491 C 92.122 115.491,92.033 115.570,91.936 115.667 M287.280 119.971 C 286.865 120.404,286.576 120.801,286.638 120.853 C 286.699 120.904,287.088 120.549,287.501 120.064 C 288.434 118.969,288.296 118.911,287.280 119.971 M93.115 120.989 C 93.283 121.258,93.670 121.629,93.974 121.813 C 94.363 122.048,94.296 121.902,93.754 121.325 C 92.873 120.387,92.674 120.283,93.115 120.989 M101.978 123.060 C 102.304 123.123,102.838 123.123,103.164 123.060 C 103.490 122.997,103.223 122.946,102.571 122.946 C 101.918 122.946,101.651 122.997,101.978 123.060 M283.833 123.731 L 283.059 124.588 283.916 123.814 C 284.714 123.092,284.894 122.874,284.690 122.874 C 284.645 122.874,284.259 123.260,283.833 123.731 M105.010 123.327 C 105.409 123.387,106.061 123.387,106.460 123.327 C 106.859 123.266,106.533 123.217,105.735 123.217 C 104.937 123.217,104.611 123.266,105.010 123.327 M111.997 123.592 C 112.469 123.651,113.240 123.651,113.711 123.592 C 114.183 123.534,113.797 123.486,112.854 123.486 C 111.912 123.486,111.526 123.534,111.997 123.592 M120.693 123.855 C 121.161 123.914,121.992 123.915,122.539 123.858 C 123.086 123.800,122.703 123.753,121.688 123.752 C 120.672 123.750,120.225 123.797,120.693 123.855 M124.526 124.118 C 124.927 124.179,125.520 124.177,125.844 124.114 C 126.168 124.052,125.840 124.002,125.115 124.004 C 124.390 124.006,124.125 124.057,124.526 124.118 M132.331 124.377 C 132.567 124.471,131.155 126.081,128.244 129.037 L 123.797 133.553 128.477 128.942 C 133.705 123.791,133.364 124.185,132.564 124.213 C 132.221 124.225,132.123 124.294,132.331 124.377 M279.977 127.678 C 279.588 128.081,279.359 128.411,279.470 128.411 C 279.720 128.411,280.948 127.123,280.796 127.020 C 280.735 126.979,280.367 127.275,279.977 127.678 M277.390 130.268 C 275.360 132.435,275.386 132.527,277.462 130.528 C 278.438 129.590,279.235 128.789,279.235 128.749 C 279.235 128.446,278.631 128.943,277.390 130.268 M271.540 136.116 C 271.150 136.519,270.922 136.849,271.032 136.849 C 271.282 136.849,272.511 135.561,272.359 135.458 C 272.298 135.416,271.929 135.712,271.540 136.116 M122.682 136.849 C 122.682 137.502,122.734 137.769,122.797 137.442 C 122.859 137.116,122.859 136.582,122.797 136.256 C 122.734 135.929,122.682 136.196,122.682 136.849 M269.263 138.349 C 268.636 139.002,268.168 139.581,268.224 139.637 C 268.279 139.692,268.906 139.147,269.617 138.425 C 270.328 137.703,270.795 137.124,270.656 137.138 C 270.516 137.151,269.889 137.696,269.263 138.349 M267.188 140.532 C 266.870 140.924,266.535 141.591,266.442 142.013 C 266.313 142.598,266.339 142.687,266.553 142.386 C 266.708 142.169,266.836 141.820,266.838 141.612 C 266.841 141.404,267.100 140.960,267.415 140.624 C 267.730 140.289,267.937 139.971,267.876 139.917 C 267.815 139.863,267.506 140.140,267.188 140.532 M265.957 145.079 C 265.868 145.411,265.807 146.038,265.822 146.473 C 265.841 147.019,265.918 146.858,266.069 145.954 C 266.299 144.577,266.232 144.051,265.957 145.079 M265.291 149.814 C 265.274 150.056,265.192 150.471,265.109 150.737 C 264.965 151.194,264.973 151.195,265.258 150.750 C 265.424 150.491,265.506 150.076,265.441 149.827 C 265.333 149.419,265.319 149.417,265.291 149.814 M136.254 155.570 C 135.710 156.440,135.357 157.152,135.468 157.152 C 135.580 157.152,136.067 156.490,136.551 155.682 L 137.431 154.211 138.129 154.825 L 138.827 155.438 138.187 154.713 C 137.350 153.763,137.397 153.742,136.254 155.570 M133.857 159.167 C 133.210 160.162,132.738 161.034,132.807 161.105 C 132.877 161.177,133.039 161.047,133.167 160.817 C 133.296 160.588,133.824 159.771,134.341 159.003 C 134.858 158.234,135.225 157.550,135.157 157.482 C 135.089 157.413,134.504 158.172,133.857 159.167 M263.829 158.621 C 263.732 159.008,263.703 159.375,263.766 159.437 C 263.828 159.499,263.958 159.234,264.055 158.847 C 264.152 158.461,264.180 158.094,264.118 158.032 C 264.056 157.970,263.926 158.235,263.829 158.621 M263.333 161.905 C 263.237 162.264,263.170 162.914,263.183 163.349 C 263.204 163.980,263.256 163.900,263.442 162.953 C 263.697 161.657,263.613 160.855,263.333 161.905 M131.309 163.151 C 130.767 164.071,130.763 164.106,131.256 163.661 C 131.705 163.256,132.228 162.162,131.972 162.162 C 131.928 162.162,131.629 162.607,131.309 163.151 M117.393 164.074 C 117.233 164.400,116.846 165.053,116.534 165.524 C 116.222 165.995,116.021 166.381,116.087 166.381 C 116.153 166.381,116.641 165.728,117.170 164.931 C 117.700 164.133,118.032 163.481,117.909 163.481 C 117.786 163.481,117.554 163.748,117.393 164.074 M128.882 166.826 C 126.746 170.092,126.756 170.074,127.011 170.065 C 127.129 170.061,127.759 169.174,128.411 168.095 C 129.064 167.016,129.687 166.129,129.796 166.125 C 129.904 166.121,129.993 165.978,129.993 165.809 C 129.993 165.639,130.190 165.282,130.431 165.016 C 130.672 164.750,130.803 164.466,130.722 164.385 C 130.641 164.304,129.813 165.402,128.882 166.826 M262.656 166.645 C 262.634 166.862,262.551 167.337,262.470 167.699 C 262.343 168.269,262.364 168.295,262.623 167.890 C 262.787 167.632,262.871 167.157,262.809 166.835 C 262.746 166.513,262.678 166.427,262.656 166.645 M153.438 170.152 C 153.774 170.579,153.689 170.750,152.581 171.874 C 151.905 172.561,151.351 173.233,151.351 173.368 C 151.351 173.502,151.945 173.028,152.670 172.314 C 154.106 170.899,154.224 170.586,153.527 170.039 C 153.106 169.709,153.098 169.719,153.438 170.152 M126.134 171.065 C 125.257 172.270,125.180 172.455,125.629 172.283 C 125.854 172.196,126.038 171.999,126.038 171.845 C 126.038 171.691,126.235 171.347,126.476 171.080 C 126.717 170.814,126.857 170.539,126.787 170.470 C 126.717 170.400,126.423 170.668,126.134 171.065 M112.662 173.237 C 112.662 173.889,112.714 174.156,112.777 173.830 C 112.840 173.504,112.840 172.970,112.777 172.643 C 112.714 172.317,112.662 172.584,112.662 173.237 M128.543 175.873 C 130.279 177.614,131.804 179.038,131.931 179.038 C 132.059 179.038,130.722 177.614,128.960 175.873 C 127.199 174.133,125.674 172.709,125.572 172.709 C 125.470 172.709,126.807 174.133,128.543 175.873 M150.896 174.188 C 150.090 176.161,150.874 179.269,152.532 180.677 C 153.417 181.428,153.616 181.202,152.758 180.422 C 151.136 178.948,150.508 176.927,151.057 174.941 C 151.353 173.867,151.241 173.343,150.896 174.188 M260.646 179.038 C 260.546 179.493,260.523 179.926,260.596 179.998 C 260.668 180.071,260.810 179.757,260.910 179.301 C 261.010 178.845,261.032 178.413,260.960 178.341 C 260.887 178.268,260.746 178.582,260.646 179.038 M160.364 179.839 C 159.592 180.558,159.072 181.147,159.207 181.147 C 159.342 181.147,160.023 180.615,160.721 179.966 C 161.784 178.975,162.056 178.837,162.405 179.109 C 162.773 179.395,162.779 179.379,162.459 178.972 C 161.969 178.347,161.959 178.351,160.364 179.839 M132.630 179.758 C 132.630 179.870,138.793 186.124,146.324 193.655 L 160.019 207.347 161.684 206.334 C 163.677 205.120,163.603 205.177,163.427 205.000 C 163.349 204.922,162.566 205.354,161.688 205.960 L 160.090 207.062 146.360 193.308 C 138.809 185.743,132.630 179.645,132.630 179.758 M120.760 183.586 C 122.280 185.145,123.556 186.421,123.594 186.421 C 123.785 186.421,123.463 186.083,120.831 183.515 L 117.996 180.751 120.760 183.586 M153.724 181.384 C 153.724 181.650,155.026 181.938,156.229 181.938 C 157.433 181.938,158.734 181.650,158.734 181.384 C 158.734 181.261,158.430 181.276,158.058 181.417 C 157.686 181.559,156.863 181.674,156.229 181.674 C 155.596 181.674,154.773 181.559,154.401 181.417 C 154.029 181.276,153.724 181.261,153.724 181.384 M260.025 183.388 C 260.000 183.823,259.919 184.476,259.844 184.838 L 259.708 185.498 259.992 184.848 C 260.148 184.490,260.229 183.838,260.173 183.397 L 260.071 182.597 260.025 183.388 M106.382 185.168 L 105.339 186.289 106.460 185.246 C 107.502 184.277,107.702 184.047,107.502 184.047 C 107.459 184.047,106.955 184.552,106.382 185.168 M115.887 185.366 C 116.112 185.801,116.355 186.157,116.428 186.157 C 116.500 186.157,116.375 185.801,116.150 185.366 C 115.925 184.931,115.682 184.575,115.609 184.575 C 115.537 184.575,115.662 184.931,115.887 185.366 M127.879 190.705 C 129.399 192.264,130.675 193.540,130.714 193.540 C 130.904 193.540,130.583 193.202,127.950 190.635 L 125.115 187.871 127.879 190.705 M258.730 191.694 C 258.730 192.202,258.784 192.409,258.850 192.156 C 258.917 191.902,258.917 191.486,258.850 191.233 C 258.784 190.979,258.730 191.187,258.730 191.694 M98.731 192.815 L 97.956 193.672 98.813 192.897 C 99.612 192.175,99.792 191.958,99.588 191.958 C 99.543 191.958,99.157 192.343,98.731 192.815 M114.288 192.815 L 113.514 193.672 114.370 192.897 C 115.169 192.175,115.349 191.958,115.145 191.958 C 115.100 191.958,114.714 192.343,114.288 192.815 M96.506 194.990 C 95.866 195.643,95.401 196.177,95.474 196.177 C 95.546 196.177,96.129 195.643,96.770 194.990 C 97.410 194.338,97.875 193.804,97.803 193.804 C 97.730 193.804,97.147 194.338,96.506 194.990 M135.662 198.550 C 137.544 200.435,139.142 201.978,139.215 201.978 C 139.287 201.978,137.807 200.435,135.926 198.550 C 134.045 196.664,132.447 195.122,132.374 195.122 C 132.302 195.122,133.781 196.664,135.662 198.550 M177.719 195.517 C 177.539 195.735,177.227 195.913,177.028 195.913 C 176.828 195.913,176.664 196.032,176.664 196.177 C 176.664 196.322,176.753 196.436,176.862 196.431 C 177.198 196.415,178.661 195.125,178.345 195.123 C 178.181 195.123,177.900 195.300,177.719 195.517 M258.028 195.800 C 257.931 196.186,257.911 196.562,257.984 196.634 C 258.056 196.707,258.195 196.450,258.292 196.064 C 258.389 195.677,258.409 195.302,258.336 195.229 C 258.264 195.157,258.125 195.414,258.028 195.800 M174.491 197.582 C 173.514 198.187,172.714 198.772,172.712 198.883 C 172.710 199.035,175.616 197.374,176.379 196.788 C 177.151 196.195,175.846 196.744,174.491 197.582 M257.501 198.964 C 257.404 199.351,257.375 199.718,257.437 199.780 C 257.500 199.842,257.630 199.577,257.727 199.190 C 257.824 198.804,257.852 198.437,257.790 198.375 C 257.728 198.312,257.598 198.578,257.501 198.964 M127.030 199.000 C 127.358 199.063,127.833 199.061,128.085 198.995 C 128.337 198.929,128.069 198.877,127.488 198.880 C 126.908 198.883,126.702 198.937,127.030 199.000 M90.960 200.593 L 89.519 202.109 91.035 200.668 C 92.443 199.329,92.672 199.077,92.476 199.077 C 92.435 199.077,91.753 199.759,90.960 200.593 M171.655 199.473 C 171.474 199.690,171.163 199.868,170.963 199.868 C 170.763 199.868,170.598 199.957,170.595 200.066 C 170.592 200.175,169.998 200.615,169.276 201.043 C 168.554 201.472,167.963 201.921,167.963 202.040 C 167.963 202.160,168.883 201.644,170.007 200.895 C 172.355 199.329,172.669 199.077,172.267 199.077 C 172.111 199.077,171.835 199.255,171.655 199.473 M206.124 201.582 C 205.033 202.670,204.221 203.560,204.319 203.560 C 204.417 203.560,205.257 202.794,206.184 201.858 C 207.111 200.923,207.968 200.218,208.088 200.292 C 208.208 200.366,208.306 200.242,208.306 200.016 C 208.306 199.414,208.284 199.429,206.124 201.582 M121.418 202.571 L 119.314 204.746 121.490 202.643 C 122.686 201.486,123.665 200.507,123.665 200.468 C 123.665 200.275,123.371 200.550,121.418 202.571 M255.490 202.439 L 254.581 203.428 255.570 202.519 C 256.491 201.673,256.680 201.450,256.479 201.450 C 256.435 201.450,255.990 201.895,255.490 202.439 M88.069 203.428 C 87.428 204.080,86.963 204.614,87.036 204.614 C 87.108 204.614,87.692 204.080,88.332 203.428 C 88.973 202.775,89.437 202.241,89.365 202.241 C 89.292 202.241,88.709 202.775,88.069 203.428 M140.530 203.362 C 141.176 204.051,141.740 204.614,141.782 204.614 C 141.980 204.614,141.771 204.378,140.606 203.285 L 139.354 202.109 140.530 203.362 M166.579 202.705 C 165.512 203.366,165.694 203.636,166.777 202.997 C 167.284 202.698,167.699 202.405,167.699 202.347 C 167.699 202.134,167.287 202.266,166.579 202.705 M132.887 204.668 C 132.817 205.350,132.858 205.811,132.977 205.692 C 133.096 205.572,133.153 205.014,133.104 204.451 L 133.015 203.428 132.887 204.668 M164.403 204.234 C 163.968 204.604,163.850 204.790,164.140 204.648 C 164.920 204.265,165.761 203.577,165.458 203.569 C 165.313 203.565,164.838 203.865,164.403 204.234 M200.681 206.933 C 199.460 208.159,198.689 209.038,198.967 208.885 C 199.603 208.534,203.506 204.599,203.158 204.658 C 203.016 204.683,201.902 205.706,200.681 206.933 M144.755 207.581 C 146.275 209.140,147.550 210.415,147.589 210.415 C 147.780 210.415,147.458 210.077,144.825 207.510 L 141.991 204.746 144.755 207.581 M208.388 206.592 C 208.389 207.462,208.438 207.786,208.497 207.312 C 208.556 206.838,208.554 206.126,208.494 205.730 C 208.434 205.334,208.386 205.722,208.388 206.592 M86.020 207.779 C 86.020 208.286,86.075 208.494,86.141 208.240 C 86.207 207.986,86.207 207.571,86.141 207.317 C 86.075 207.063,86.020 207.271,86.020 207.779 M128.539 211.009 L 125.115 214.502 128.609 211.078 C 130.531 209.195,132.103 207.623,132.103 207.585 C 132.103 207.395,131.720 207.763,128.539 211.009 M208.649 209.888 C 208.649 210.686,208.698 211.012,208.758 210.613 C 208.819 210.214,208.819 209.562,208.758 209.163 C 208.698 208.764,208.649 209.090,208.649 209.888 M246.786 211.140 C 245.113 212.866,242.967 215.315,244.188 214.107 C 245.569 212.739,248.986 209.097,248.887 209.097 C 248.822 209.097,247.876 210.016,246.786 211.140 M112.058 211.931 L 109.558 214.502 112.129 212.003 C 113.543 210.628,114.700 209.471,114.700 209.432 C 114.700 209.241,114.380 209.544,112.058 211.931 M149.242 212.129 C 150.030 212.927,150.733 213.579,150.806 213.579 C 150.878 213.579,150.293 212.927,149.506 212.129 C 148.718 211.332,148.014 210.679,147.942 210.679 C 147.869 210.679,148.454 211.332,149.242 212.129 M88.823 212.509 C 89.165 212.808,89.571 213.052,89.724 213.052 C 90.048 213.052,90.033 213.039,88.991 212.429 L 88.200 211.966 88.823 212.509 M91.035 213.234 C 91.289 213.300,91.704 213.300,91.958 213.234 C 92.212 213.168,92.004 213.113,91.496 213.113 C 90.989 213.113,90.781 213.168,91.035 213.234 M152.802 215.689 C 153.809 216.704,154.693 217.535,154.765 217.535 C 154.838 217.535,154.073 216.704,153.065 215.689 C 152.058 214.674,151.174 213.843,151.102 213.843 C 151.029 213.843,151.794 214.674,152.802 215.689 M120.498 219.051 L 116.678 222.940 120.567 219.120 C 124.180 215.571,124.576 215.162,124.387 215.162 C 124.349 215.162,122.599 216.912,120.498 219.051 M130.785 227.126 C 120.932 236.998,119.463 238.576,119.466 239.288 C 119.467 239.433,119.653 239.196,119.879 238.761 C 120.105 238.326,125.113 233.134,131.008 227.225 C 136.902 221.315,141.654 216.480,141.567 216.480 C 141.481 216.480,136.629 221.271,130.785 227.126 M103.885 220.105 L 101.121 222.940 103.955 220.176 C 106.588 217.609,106.910 217.271,106.719 217.271 C 106.680 217.271,105.405 218.546,103.885 220.105 M208.918 219.380 C 208.918 220.323,208.965 220.709,209.024 220.237 C 209.082 219.766,209.082 218.995,209.024 218.523 C 208.965 218.052,208.918 218.438,208.918 219.380 M157.654 219.725 C 157.772 219.842,158.508 219.900,159.290 219.853 L 160.712 219.768 159.076 219.640 C 158.176 219.570,157.537 219.608,157.654 219.725 M149.817 221.270 C 149.791 221.947,149.701 222.719,149.618 222.984 C 149.475 223.437,149.484 223.438,149.764 223.004 C 149.928 222.749,150.017 221.977,149.963 221.290 L 149.864 220.040 149.817 221.270 M209.193 224.786 C 209.194 226.236,209.238 226.796,209.292 226.029 C 209.345 225.263,209.344 224.077,209.290 223.393 C 209.236 222.709,209.193 223.336,209.193 224.786 M112.060 227.488 L 108.240 231.378 112.129 227.558 C 115.742 224.009,116.138 223.599,115.949 223.599 C 115.911 223.599,114.161 225.349,112.060 227.488 M145.546 228.016 L 142.518 231.114 145.616 228.086 C 147.320 226.421,148.715 225.026,148.715 224.988 C 148.715 224.798,148.359 225.138,145.546 228.016 M96.506 227.423 C 95.866 228.075,95.401 228.609,95.474 228.609 C 95.546 228.609,96.129 228.075,96.770 227.423 C 97.410 226.770,97.875 226.236,97.803 226.236 C 97.730 226.236,97.147 226.770,96.506 227.423 M209.447 230.323 C 209.448 231.338,209.496 231.721,209.553 231.174 C 209.610 230.627,209.609 229.796,209.551 229.328 C 209.493 228.860,209.446 229.308,209.447 230.323 M94.505 230.291 C 94.428 230.490,94.404 231.232,94.452 231.939 L 94.539 233.223 94.665 231.575 C 94.794 229.910,94.759 229.629,94.505 230.291 M137.769 235.794 L 133.289 240.343 137.838 235.863 C 142.064 231.701,142.505 231.246,142.317 231.246 C 142.280 231.246,140.233 233.293,137.769 235.794 M104.936 234.608 L 103.230 236.388 105.010 234.681 C 105.989 233.743,106.790 232.942,106.790 232.901 C 106.790 232.707,106.521 232.955,104.936 234.608 M98.560 237.358 C 98.808 237.456,99.426 237.537,99.934 237.537 C 100.442 237.537,101.060 237.456,101.309 237.358 C 101.557 237.259,100.938 237.179,99.934 237.179 C 98.930 237.179,98.311 237.259,98.560 237.358 M211.602 239.560 C 212.037 239.917,212.512 240.206,212.657 240.203 C 212.802 240.199,212.594 239.995,212.195 239.747 C 211.796 239.500,211.470 239.207,211.470 239.095 C 211.470 238.984,211.322 238.897,211.140 238.902 C 210.959 238.907,211.167 239.203,211.602 239.560 M130.647 242.914 L 128.279 245.353 130.719 242.985 C 132.060 241.683,133.158 240.585,133.158 240.546 C 133.158 240.355,132.846 240.648,130.647 242.914 " stroke="none" fill="#cbc4c4" fill-rule="evenodd"></path><path id="path4" d="M276.335 18.469 C 275.682 18.577,276.691 18.604,278.576 18.528 C 280.461 18.452,282.053 18.346,282.114 18.292 C 282.306 18.120,277.568 18.265,276.335 18.469 M285.564 18.472 C 286.796 18.580,288.398 18.664,289.123 18.658 L 290.442 18.647 288.991 18.446 C 288.194 18.336,286.592 18.253,285.432 18.261 L 283.322 18.275 285.564 18.472 M270.666 18.985 L 269.347 19.166 270.798 19.189 C 271.595 19.201,272.485 19.109,272.775 18.985 C 273.432 18.703,272.723 18.703,270.666 18.985 M292.815 18.961 C 293.105 19.079,294.232 19.236,295.320 19.311 C 296.407 19.385,297.060 19.360,296.770 19.254 C 296.029 18.985,292.169 18.698,292.815 18.961 M265.392 19.776 C 264.252 20.066,265.496 20.076,267.106 19.789 L 268.293 19.578 267.238 19.576 C 266.658 19.575,265.827 19.665,265.392 19.776 M298.352 19.791 C 298.932 19.911,299.703 20.002,300.066 19.993 C 301.112 19.968,299.383 19.575,298.220 19.574 L 297.297 19.573 298.352 19.791 M262.555 20.293 C 261.148 20.565,261.040 20.814,262.404 20.642 C 263.538 20.498,264.819 20.028,263.942 20.078 C 263.724 20.090,263.100 20.187,262.555 20.293 M301.384 20.262 C 301.602 20.390,302.254 20.566,302.835 20.652 C 303.448 20.742,303.724 20.716,303.494 20.589 C 302.941 20.284,300.880 19.964,301.384 20.262 M259.196 21.094 C 258.692 21.420,259.234 21.420,260.250 21.094 L 260.910 20.883 260.250 20.861 C 259.888 20.849,259.413 20.954,259.196 21.094 M304.043 20.925 C 304.103 20.976,304.568 21.095,305.076 21.188 C 305.725 21.307,305.881 21.280,305.603 21.098 C 305.246 20.864,303.782 20.701,304.043 20.925 M257.218 21.632 C 256.783 21.752,255.973 21.967,255.417 22.109 C 254.862 22.251,254.328 22.451,254.231 22.554 C 254.134 22.657,254.351 22.664,254.713 22.568 C 256.901 21.991,257.537 21.807,258.009 21.611 C 258.679 21.335,258.248 21.346,257.218 21.632 M306.790 21.622 C 306.879 21.767,307.128 21.885,307.342 21.885 C 307.556 21.885,308.024 22.077,308.381 22.311 C 308.739 22.545,309.031 22.633,309.031 22.505 C 309.031 22.378,308.556 22.067,307.974 21.816 C 306.757 21.288,306.564 21.257,306.790 21.622 M251.898 23.158 C 251.147 23.403,250.449 23.689,250.346 23.791 C 250.243 23.894,250.561 23.854,251.052 23.703 C 251.543 23.551,252.330 23.312,252.802 23.171 C 253.273 23.030,253.659 22.861,253.659 22.796 C 253.659 22.615,253.386 22.671,251.898 23.158 M310.545 24.902 C 310.617 25.277,310.793 25.657,310.936 25.746 C 311.099 25.846,311.125 25.670,311.007 25.280 C 310.733 24.376,310.391 24.096,310.545 24.902 M246.935 24.919 L 246.144 25.291 246.935 25.136 C 247.370 25.051,247.838 24.878,247.976 24.752 C 248.352 24.407,247.849 24.488,246.935 24.919 M244.825 25.687 C 244.390 25.887,243.810 26.124,243.535 26.215 C 243.261 26.306,243.105 26.449,243.189 26.533 C 243.273 26.618,243.724 26.496,244.190 26.264 C 244.657 26.031,245.191 25.840,245.378 25.840 C 245.564 25.840,245.790 25.722,245.880 25.577 C 246.101 25.220,245.771 25.254,244.825 25.687 M311.317 27.423 C 311.404 28.075,311.572 28.787,311.692 29.005 C 311.958 29.490,311.677 27.507,311.374 26.763 C 311.246 26.447,311.223 26.711,311.317 27.423 M237.376 29.022 C 236.760 29.311,236.256 29.610,236.256 29.687 C 236.256 29.764,236.345 29.780,236.454 29.724 C 236.562 29.667,237.096 29.417,237.640 29.168 C 238.184 28.920,238.629 28.662,238.629 28.597 C 238.629 28.433,238.639 28.430,237.376 29.022 M273.830 29.292 C 269.900 29.738,268.124 30.009,267.948 30.188 C 267.722 30.419,271.120 30.102,272.380 29.775 C 272.887 29.643,274.133 29.520,275.148 29.502 C 276.163 29.484,277.350 29.379,277.785 29.268 C 278.874 28.991,276.342 29.006,273.830 29.292 M286.928 29.125 C 287.025 29.230,288.390 29.421,289.960 29.549 C 291.530 29.678,293.692 29.909,294.765 30.062 C 295.838 30.216,296.846 30.293,297.006 30.234 C 297.166 30.175,296.823 30.051,296.243 29.958 C 295.662 29.865,294.476 29.673,293.606 29.532 C 291.442 29.179,286.709 28.892,286.928 29.125 M311.935 30.213 C 311.938 30.636,312.061 31.160,312.209 31.378 C 312.402 31.661,312.428 31.474,312.302 30.719 C 312.083 29.410,311.930 29.200,311.935 30.213 M234.596 30.373 C 234.045 30.671,233.646 30.965,233.707 31.027 C 233.827 31.146,235.992 30.079,235.992 29.901 C 235.992 29.699,235.589 29.835,234.596 30.373 M265.260 30.602 C 264.753 30.723,263.829 30.931,263.206 31.066 C 262.049 31.316,261.440 31.641,262.129 31.641 C 262.340 31.641,263.196 31.463,264.031 31.246 C 264.866 31.028,265.811 30.849,266.130 30.846 C 266.449 30.844,266.889 30.727,267.106 30.587 C 267.601 30.267,266.642 30.275,265.260 30.602 M297.956 30.567 C 298.174 30.719,298.649 30.846,299.011 30.850 C 300.718 30.870,301.643 31.766,301.652 33.408 C 301.654 33.814,301.771 34.324,301.912 34.542 C 302.132 34.882,302.168 34.875,302.171 34.489 C 302.183 33.238,301.560 31.333,301.031 30.998 C 300.343 30.562,297.345 30.142,297.956 30.567 M232.235 31.659 C 231.691 31.946,231.246 32.240,231.246 32.312 C 231.246 32.384,231.721 32.201,232.301 31.905 C 232.881 31.609,233.355 31.310,233.355 31.241 C 233.355 31.068,233.353 31.069,232.235 31.659 M260.382 31.762 C 260.237 31.805,259.585 31.992,258.932 32.175 C 255.128 33.247,249.051 35.419,246.539 36.603 C 244.534 37.549,244.815 37.736,246.862 36.818 C 247.627 36.475,248.787 35.987,249.440 35.732 C 250.092 35.478,250.864 35.175,251.154 35.058 C 251.444 34.942,252.274 34.647,252.999 34.403 C 253.724 34.158,254.555 33.865,254.845 33.752 C 255.893 33.340,259.347 32.360,260.187 32.237 C 260.660 32.167,261.112 32.005,261.191 31.876 C 261.330 31.651,260.938 31.596,260.382 31.762 M229.837 32.991 C 229.279 33.285,228.879 33.581,228.947 33.649 C 229.072 33.774,230.982 32.732,230.982 32.538 C 230.982 32.389,230.963 32.396,229.837 32.991 M312.630 33.619 C 312.718 34.344,312.834 34.987,312.888 35.047 C 313.094 35.278,312.937 33.329,312.709 32.828 C 312.547 32.473,312.521 32.731,312.630 33.619 M225.308 35.765 C 223.963 36.657,223.489 37.128,224.540 36.529 C 225.464 36.001,226.698 35.084,226.495 35.075 C 226.420 35.072,225.886 35.382,225.308 35.765 M302.280 36.783 C 302.374 37.653,302.567 39.077,302.708 39.947 C 302.849 40.817,303.052 42.716,303.160 44.166 C 303.297 46.026,303.380 46.434,303.439 45.551 C 303.566 43.645,302.682 35.741,302.301 35.382 C 302.196 35.282,302.186 35.913,302.280 36.783 M313.160 37.047 C 313.239 37.917,313.402 38.985,313.521 39.420 C 313.657 39.915,313.683 39.472,313.590 38.233 C 313.509 37.146,313.347 36.078,313.230 35.860 C 313.112 35.643,313.081 36.177,313.160 37.047 M220.939 38.688 C 217.930 40.838,213.198 44.562,213.476 44.562 C 213.587 44.562,214.219 44.112,214.881 43.562 C 216.095 42.552,220.035 39.603,222.347 37.973 C 223.484 37.171,223.765 36.915,223.510 36.915 C 223.461 36.915,222.304 37.713,220.939 38.688 M239.815 39.772 C 234.061 42.749,226.681 47.398,223.447 50.084 C 223.001 50.455,222.171 51.114,221.602 51.549 C 219.531 53.133,217.604 55.010,198.898 73.661 L 179.866 92.637 177.975 90.716 L 176.085 88.795 175.518 89.383 L 174.951 89.972 175.514 89.635 C 176.031 89.325,176.222 89.442,177.836 91.056 C 178.803 92.023,179.714 92.815,179.861 92.815 C 180.008 92.815,188.461 84.479,198.645 74.291 C 215.099 57.832,218.830 54.195,221.198 52.314 C 221.545 52.038,222.197 51.507,222.648 51.133 C 223.099 50.759,224.179 49.929,225.049 49.289 C 225.920 48.648,226.691 48.052,226.763 47.965 C 226.836 47.877,227.014 47.757,227.159 47.699 C 227.698 47.483,231.381 44.984,231.466 44.777 C 231.514 44.658,231.664 44.562,231.800 44.562 C 231.935 44.562,232.964 43.998,234.085 43.309 C 235.206 42.620,236.599 41.819,237.179 41.529 C 237.759 41.239,238.293 40.943,238.365 40.870 C 238.655 40.581,244.056 37.968,244.364 37.969 C 244.545 37.969,244.693 37.851,244.693 37.706 C 244.693 37.269,244.468 37.365,239.815 39.772 M208.778 48.753 C 206.560 50.913,201.898 55.554,198.418 59.066 C 194.937 62.578,191.734 65.612,191.299 65.807 C 190.704 66.074,190.636 66.165,191.027 66.173 C 191.365 66.180,195.004 62.744,201.442 56.343 C 206.885 50.930,211.787 46.125,212.336 45.664 C 212.885 45.203,213.216 44.825,213.072 44.825 C 212.927 44.825,210.995 46.593,208.778 48.753 M256.955 46.782 C 256.084 46.952,255.194 47.159,254.977 47.240 C 254.759 47.322,253.929 47.605,253.131 47.870 C 246.681 50.013,240.649 56.046,238.511 62.492 C 238.246 63.289,237.935 64.179,237.819 64.469 C 236.823 66.967,236.863 76.257,237.875 77.376 C 238.000 77.514,238.102 77.893,238.102 78.218 C 238.102 78.543,238.220 78.882,238.365 78.972 C 238.712 79.186,238.699 79.008,238.256 77.413 C 237.473 74.590,237.310 73.477,237.310 70.929 C 237.310 68.381,237.432 67.553,238.299 64.206 C 239.749 58.606,244.066 53.057,249.371 49.975 C 253.100 47.808,256.122 46.986,261.437 46.693 L 264.865 46.503 261.701 46.487 C 259.960 46.479,257.825 46.611,256.955 46.782 M265.260 46.915 C 265.478 47.067,265.967 47.192,266.347 47.194 C 267.269 47.200,270.747 48.348,272.442 49.208 C 288.814 57.504,290.507 80.181,275.544 90.746 C 272.692 92.760,270.091 93.830,265.454 94.898 C 263.841 95.270,259.307 95.272,257.683 94.901 C 253.932 94.045,253.211 93.797,250.518 92.437 C 245.313 89.809,240.726 84.756,239.012 79.763 C 238.895 79.421,238.787 79.354,238.706 79.572 C 238.566 79.947,240.737 84.377,241.061 84.377 C 241.174 84.377,241.268 84.525,241.270 84.707 C 241.276 85.182,243.512 87.734,245.370 89.387 C 247.667 91.430,250.521 93.122,253.131 93.988 C 253.929 94.252,254.819 94.563,255.109 94.679 C 257.539 95.645,265.528 95.642,268.029 94.673 C 268.319 94.561,269.209 94.252,270.007 93.988 C 276.481 91.840,282.482 85.833,284.635 79.344 C 284.895 78.559,285.200 77.680,285.313 77.390 C 287.023 72.976,286.101 64.820,283.278 59.388 C 280.476 53.995,273.848 48.441,269.153 47.551 C 268.680 47.461,268.174 47.299,268.029 47.191 C 267.884 47.082,267.113 46.914,266.315 46.817 C 265.275 46.690,264.977 46.718,265.260 46.915 M303.157 55.504 C 303.049 56.955,302.844 58.912,302.702 59.855 C 302.224 63.038,302.103 64.470,302.329 64.258 C 302.453 64.142,302.642 63.311,302.749 62.412 C 303.308 57.729,303.514 55.249,303.439 54.120 C 303.379 53.233,303.297 53.636,303.157 55.504 M259.987 57.126 C 258.873 57.247,256.220 58.022,256.379 58.181 C 256.441 58.243,257.011 58.113,257.646 57.892 C 258.397 57.630,259.769 57.490,261.569 57.490 C 263.369 57.490,264.741 57.630,265.492 57.892 C 266.127 58.113,266.695 58.245,266.755 58.185 C 267.219 57.720,262.014 56.905,259.987 57.126 M254.779 58.831 C 253.598 59.587,253.704 59.696,254.977 59.033 C 255.557 58.731,256.032 58.436,256.032 58.378 C 256.032 58.150,255.597 58.307,254.779 58.831 M267.106 58.386 C 267.106 58.449,267.641 58.767,268.295 59.093 C 268.949 59.420,269.680 59.903,269.918 60.167 C 270.157 60.430,270.461 60.646,270.595 60.646 C 270.912 60.646,269.610 59.584,268.393 58.849 C 267.460 58.286,267.106 58.158,267.106 58.386 M313.427 60.090 C 313.330 60.577,313.265 61.465,313.283 62.063 C 313.311 62.954,313.357 62.841,313.542 61.437 C 313.788 59.568,313.711 58.668,313.427 60.090 M252.896 60.134 C 252.549 60.423,252.321 60.715,252.390 60.783 C 252.458 60.852,252.792 60.611,253.132 60.249 C 253.872 59.462,253.766 59.410,252.896 60.134 M271.347 61.305 C 271.538 61.595,271.956 62.129,272.277 62.492 C 272.598 62.854,273.122 63.660,273.443 64.283 C 273.764 64.906,274.082 65.360,274.149 65.292 C 274.343 65.099,273.007 62.991,271.957 61.833 C 271.431 61.252,271.157 61.015,271.347 61.305 M250.647 62.434 L 250.141 63.151 250.845 62.512 C 251.585 61.840,251.676 61.695,251.351 61.709 C 251.243 61.714,250.926 62.040,250.647 62.434 M249.648 63.876 C 249.228 64.533,248.875 65.392,249.026 65.392 C 249.079 65.392,249.370 64.918,249.673 64.338 C 250.270 63.191,250.256 62.926,249.648 63.876 M312.767 64.898 C 312.742 65.279,312.660 65.990,312.584 66.480 C 312.456 67.295,312.469 67.315,312.728 66.720 C 312.884 66.362,312.966 65.650,312.911 65.138 C 312.839 64.464,312.799 64.398,312.767 64.898 M301.828 65.493 C 301.729 65.751,301.648 66.244,301.648 66.588 C 301.648 66.932,301.542 67.486,301.413 67.819 C 301.283 68.152,300.974 69.374,300.725 70.534 C 300.477 71.694,299.980 73.564,299.622 74.690 C 299.263 75.816,299.018 76.883,299.078 77.061 C 299.137 77.240,299.396 76.674,299.653 75.805 C 299.910 74.936,300.219 73.929,300.340 73.566 C 300.461 73.204,300.634 72.492,300.725 71.984 C 300.816 71.477,300.989 70.765,301.110 70.402 C 301.842 68.214,302.494 63.758,301.828 65.493 M248.411 66.605 C 248.260 67.154,248.183 67.651,248.241 67.709 C 248.299 67.767,248.471 67.365,248.622 66.816 C 248.774 66.267,248.851 65.770,248.793 65.712 C 248.735 65.654,248.563 66.056,248.411 66.605 M187.871 66.456 C 187.526 66.610,187.847 66.637,188.794 66.534 C 189.591 66.447,190.293 66.332,190.354 66.279 C 190.587 66.075,188.370 66.233,187.871 66.456 M183.832 66.980 C 183.062 67.093,182.367 67.249,182.289 67.327 C 182.085 67.530,185.130 67.202,185.761 66.952 L 186.289 66.744 185.761 66.760 C 185.471 66.769,184.603 66.868,183.832 66.980 M274.889 67.698 C 274.978 68.023,275.051 69.477,275.051 70.929 C 275.051 72.382,274.978 73.836,274.889 74.161 C 274.739 74.710,274.750 74.717,275.041 74.249 C 275.232 73.942,275.354 72.644,275.354 70.929 C 275.354 69.215,275.232 67.917,275.041 67.610 C 274.750 67.142,274.739 67.148,274.889 67.698 M179.301 67.770 C 178.892 67.904,179.241 67.931,180.224 67.839 C 181.094 67.758,181.856 67.649,181.916 67.597 C 182.129 67.413,179.952 67.557,179.301 67.770 M175.742 68.293 L 174.687 68.482 175.742 68.500 C 176.322 68.511,177.034 68.417,177.324 68.293 L 177.851 68.066 177.324 68.085 C 177.034 68.095,176.322 68.189,175.742 68.293 M247.816 69.541 C 247.766 70.373,247.797 71.708,247.885 72.508 C 248.006 73.619,248.053 73.262,248.083 70.995 C 248.124 67.854,247.968 67.003,247.816 69.541 M312.096 68.698 C 312.005 68.934,311.945 69.443,311.962 69.830 C 311.984 70.357,312.044 70.269,312.198 69.479 C 312.416 68.358,312.368 67.989,312.096 68.698 M170.995 69.081 C 170.667 69.221,171.016 69.249,171.918 69.158 C 172.716 69.076,173.418 68.967,173.478 68.915 C 173.705 68.719,171.501 68.866,170.995 69.081 M167.172 69.611 L 166.249 69.805 167.304 69.836 C 167.884 69.853,168.537 69.752,168.754 69.611 C 169.231 69.303,168.638 69.303,167.172 69.611 M163.668 70.139 C 162.829 70.247,162.063 70.413,161.968 70.509 C 161.745 70.731,164.758 70.393,165.458 70.116 C 166.081 69.871,165.733 69.875,163.668 70.139 M158.998 70.929 L 158.075 71.124 158.998 71.154 C 159.506 71.171,160.099 71.070,160.316 70.929 C 160.796 70.620,160.470 70.620,158.998 70.929 M311.577 71.127 C 311.312 72.093,311.148 73.699,311.369 73.171 C 311.620 72.569,311.948 70.666,311.801 70.666 C 311.747 70.666,311.646 70.873,311.577 71.127 M155.201 71.484 C 154.346 71.609,153.584 71.773,153.509 71.848 C 153.290 72.067,156.715 71.673,157.152 71.429 C 157.647 71.154,157.422 71.160,155.201 71.484 M150.824 72.257 C 150.398 72.399,150.679 72.423,151.615 72.327 C 152.413 72.244,153.115 72.133,153.175 72.080 C 153.386 71.895,151.477 72.039,150.824 72.257 M146.917 72.781 C 146.147 72.894,145.452 73.050,145.374 73.128 C 145.151 73.350,148.271 72.996,148.715 72.748 C 149.202 72.476,148.984 72.480,146.917 72.781 M142.254 73.580 C 141.734 73.721,142.005 73.744,143.045 73.647 C 143.916 73.566,144.677 73.456,144.737 73.401 C 144.934 73.225,143.068 73.359,142.254 73.580 M138.563 74.094 L 137.508 74.282 138.695 74.316 C 139.347 74.334,140.059 74.234,140.277 74.094 C 140.747 73.790,140.259 73.790,138.563 74.094 M248.285 74.753 C 248.379 75.188,248.560 75.722,248.688 75.939 C 248.836 76.192,248.858 76.050,248.749 75.544 C 248.654 75.109,248.473 74.575,248.346 74.357 C 248.197 74.104,248.176 74.247,248.285 74.753 M310.736 74.788 C 310.645 75.204,310.471 75.840,310.349 76.203 C 309.991 77.272,309.765 78.457,309.955 78.267 C 310.052 78.170,310.233 77.696,310.358 77.213 C 311.004 74.699,311.103 74.232,311.007 74.136 C 310.949 74.078,310.828 74.372,310.736 74.788 M135.191 74.622 C 134.351 74.729,133.586 74.895,133.490 74.991 C 133.268 75.214,136.281 74.875,136.981 74.599 C 137.604 74.353,137.256 74.357,135.191 74.622 M111.762 95.386 C 93.139 114.043,91.480 115.827,92.141 116.487 C 92.219 116.566,92.359 116.225,92.450 115.731 C 92.590 114.976,95.733 111.710,112.026 95.386 C 122.701 84.690,131.376 75.939,131.304 75.939 C 131.231 75.939,122.437 84.690,111.762 95.386 M248.912 76.633 C 248.912 76.854,249.980 78.576,250.116 78.576 C 250.175 78.576,249.975 78.102,249.673 77.521 C 249.156 76.531,248.912 76.246,248.912 76.633 M273.488 77.539 C 273.160 78.109,272.944 78.576,273.010 78.576 C 273.191 78.576,274.299 76.716,274.185 76.602 C 274.130 76.547,273.816 76.969,273.488 77.539 M298.644 77.813 C 298.389 78.622,297.625 80.849,297.433 81.345 C 295.683 85.863,295.030 87.339,292.821 91.760 C 291.004 95.395,290.633 96.074,289.031 98.686 C 288.429 99.668,287.937 100.587,287.937 100.730 C 287.937 100.872,287.818 100.989,287.673 100.989 C 287.528 100.989,287.409 101.157,287.409 101.362 C 287.409 101.568,287.320 101.775,287.212 101.824 C 286.945 101.942,284.773 105.188,284.773 105.469 C 284.773 105.591,284.684 105.731,284.575 105.779 C 284.466 105.827,283.606 106.915,282.663 108.197 C 281.721 109.478,280.712 110.786,280.422 111.104 C 280.132 111.421,279.183 112.506,278.312 113.514 C 277.442 114.523,268.261 123.830,257.909 134.198 C 243.336 148.794,238.977 153.308,238.595 154.199 C 238.091 155.375,237.926 157.540,238.321 157.784 C 238.442 157.859,238.541 157.243,238.541 156.416 C 238.542 154.158,238.026 154.736,257.515 135.195 C 277.441 115.218,279.292 113.252,283.502 107.606 C 288.351 101.102,296.902 85.698,296.902 83.466 C 296.902 83.290,296.983 83.065,297.082 82.966 C 297.449 82.600,299.070 77.756,298.888 77.574 C 298.818 77.504,298.708 77.611,298.644 77.813 M250.680 79.491 C 250.940 79.849,251.263 80.145,251.397 80.150 C 251.531 80.154,251.362 79.862,251.022 79.499 C 250.231 78.658,250.071 78.654,250.680 79.491 M272.116 79.499 C 271.775 79.862,271.606 80.154,271.740 80.150 C 271.966 80.142,273.053 78.840,272.833 78.840 C 272.779 78.840,272.457 79.136,272.116 79.499 M309.060 80.583 C 308.754 81.558,308.550 82.402,308.606 82.458 C 308.663 82.515,308.959 81.763,309.265 80.788 C 309.571 79.813,309.776 78.969,309.719 78.913 C 309.663 78.856,309.366 79.608,309.060 80.583 M269.987 81.653 L 269.347 82.357 270.064 81.851 C 270.458 81.573,270.785 81.256,270.789 81.147 C 270.803 80.822,270.658 80.913,269.987 81.653 M254.450 82.771 C 255.037 83.237,256.032 83.668,256.032 83.456 C 256.032 83.412,255.527 83.122,254.911 82.812 C 253.878 82.292,253.842 82.289,254.450 82.771 M268.083 82.845 C 267.533 83.143,267.141 83.445,267.212 83.516 C 267.343 83.647,269.216 82.583,269.216 82.378 C 269.216 82.230,269.226 82.226,268.083 82.845 M258.314 84.443 C 258.471 84.698,264.504 84.694,264.906 84.439 C 265.073 84.332,263.631 84.245,261.701 84.245 C 259.771 84.245,258.246 84.334,258.314 84.443 M307.572 84.773 C 307.505 84.990,307.391 85.352,307.320 85.577 C 307.249 85.802,307.294 85.923,307.420 85.845 C 307.546 85.767,307.707 85.405,307.776 85.040 C 307.914 84.319,307.772 84.133,307.572 84.773 M306.046 88.656 C 305.354 90.310,305.319 90.862,305.998 89.412 C 306.364 88.628,306.610 87.933,306.545 87.867 C 306.479 87.802,306.254 88.157,306.046 88.656 M303.937 93.486 C 303.317 94.785,303.404 95.006,304.052 93.779 C 304.346 93.221,304.540 92.718,304.483 92.661 C 304.426 92.604,304.180 92.976,303.937 93.486 M301.195 98.945 C 300.314 100.624,300.044 101.252,300.203 101.252 C 300.269 101.252,300.741 100.422,301.252 99.407 C 301.764 98.392,302.123 97.561,302.051 97.561 C 301.979 97.561,301.594 98.184,301.195 98.945 M165.492 99.352 C 165.381 99.531,165.604 100.070,166.009 100.601 C 166.823 101.668,167.040 104.507,166.402 105.735 C 166.213 106.098,159.221 113.247,150.863 121.623 L 135.667 136.851 148.848 150.036 L 162.030 163.221 193.408 131.840 C 228.677 96.567,225.451 99.593,227.797 99.593 C 231.217 99.593,233.396 102.152,232.913 105.603 C 232.678 107.281,233.406 106.520,200.815 139.169 C 183.689 156.326,169.623 170.421,169.557 170.492 C 169.490 170.563,175.363 176.548,182.607 183.793 L 195.777 196.966 211.204 181.557 C 220.977 171.797,226.873 166.097,227.291 166.006 C 229.246 165.581,230.752 165.747,231.880 166.513 C 232.864 167.181,233.355 167.334,233.355 166.974 C 233.355 166.529,230.251 165.326,229.118 165.332 C 226.832 165.343,226.544 165.596,210.763 181.408 L 195.686 196.516 182.879 183.712 C 175.836 176.670,170.073 170.804,170.073 170.676 C 170.073 170.549,183.987 156.508,200.994 139.474 C 235.691 104.723,233.224 107.386,233.221 104.680 C 233.217 100.580,229.227 97.909,225.625 99.595 C 224.958 99.907,214.028 110.664,193.285 131.422 L 161.952 162.778 149.018 149.828 L 136.085 136.878 150.915 122.031 C 159.072 113.866,166.037 106.770,166.393 106.262 C 167.284 104.992,167.335 101.804,166.485 100.593 C 166.179 100.158,165.874 99.630,165.808 99.420 C 165.719 99.138,165.635 99.121,165.492 99.352 M299.476 102.109 C 298.892 103.006,298.124 104.585,298.419 104.285 C 298.783 103.914,300.143 101.516,299.989 101.516 C 299.920 101.516,299.689 101.783,299.476 102.109 M296.475 107.119 C 295.499 108.775,295.498 108.779,296.195 107.976 C 296.836 107.239,297.060 106.790,296.786 106.790 C 296.722 106.790,296.582 106.938,296.475 107.119 M293.239 111.955 C 292.050 113.635,291.195 114.937,291.340 114.847 C 291.800 114.562,295.783 108.899,295.523 108.899 C 295.456 108.899,294.428 110.274,293.239 111.955 M289.618 116.875 C 288.803 117.806,288.387 118.392,288.541 118.392 C 288.620 118.392,289.059 117.917,289.519 117.337 C 290.412 116.209,290.481 115.891,289.618 116.875 M92.137 118.787 C 92.240 119.222,92.433 119.689,92.565 119.824 C 92.704 119.966,92.699 119.700,92.555 119.195 C 92.234 118.077,91.889 117.739,92.137 118.787 M287.937 118.876 C 287.937 118.998,286.335 120.767,284.377 122.807 C 282.419 124.847,280.817 126.601,280.817 126.704 C 280.817 126.922,284.319 123.328,286.796 120.567 C 287.740 119.515,288.382 118.655,288.224 118.655 C 288.066 118.655,287.937 118.755,287.937 118.876 M93.914 121.358 C 94.458 121.902,95.057 122.343,95.244 122.339 C 95.430 122.334,95.346 122.200,95.056 122.040 C 94.766 121.881,94.167 121.439,93.726 121.060 C 93.279 120.675,93.362 120.807,93.914 121.358 M96.063 122.641 C 96.234 122.731,98.688 122.861,101.516 122.931 C 104.615 123.008,105.924 122.977,104.812 122.855 C 102.439 122.593,95.654 122.428,96.063 122.641 M107.075 123.237 C 107.136 123.291,110.152 123.395,113.777 123.469 C 117.811 123.550,119.295 123.524,117.601 123.402 C 114.677 123.191,106.889 123.069,107.075 123.237 M124.984 123.934 C 125.926 124.042,128.179 124.145,129.991 124.162 L 133.284 124.192 128.409 129.136 L 123.533 134.080 128.472 129.210 C 131.188 126.532,133.324 124.263,133.218 124.168 C 133.112 124.073,130.831 123.938,128.148 123.867 C 125.402 123.794,124.019 123.824,124.984 123.934 M279.495 127.756 C 279.005 128.262,278.694 128.675,278.802 128.675 C 279.116 128.675,280.682 127.133,280.526 126.977 C 280.449 126.900,279.985 127.251,279.495 127.756 M276.858 130.393 C 276.369 130.898,276.059 131.312,276.172 131.312 C 276.455 131.312,278.008 129.733,277.865 129.590 C 277.801 129.526,277.348 129.887,276.858 130.393 M274.222 133.030 C 273.732 133.535,273.430 133.949,273.552 133.949 C 273.832 133.949,275.362 132.360,275.219 132.217 C 275.160 132.159,274.711 132.524,274.222 133.030 M272.683 134.635 C 272.487 134.857,272.379 135.090,272.443 135.154 C 272.506 135.218,272.774 135.032,273.037 134.741 C 273.301 134.450,273.409 134.217,273.278 134.222 C 273.146 134.228,272.879 134.414,272.683 134.635 M271.057 136.194 C 270.568 136.699,270.256 137.113,270.365 137.113 C 270.678 137.113,272.244 135.571,272.088 135.415 C 272.011 135.338,271.547 135.688,271.057 136.194 M122.953 136.849 C 122.953 137.647,123.003 137.973,123.063 137.574 C 123.123 137.175,123.123 136.523,123.063 136.124 C 123.003 135.725,122.953 136.051,122.953 136.849 M123.339 139.160 C 123.606 139.835,124.698 141.177,124.854 141.021 C 124.924 140.951,124.685 140.616,124.323 140.276 C 123.961 139.936,123.665 139.507,123.665 139.324 C 123.665 139.140,123.548 138.917,123.405 138.829 C 123.246 138.730,123.220 138.859,123.339 139.160 M267.141 140.145 C 266.687 140.663,266.323 141.290,266.334 141.539 C 266.351 141.954,266.367 141.955,266.531 141.551 C 266.630 141.310,267.047 140.736,267.458 140.277 C 267.868 139.817,268.151 139.388,268.086 139.323 C 268.021 139.258,267.596 139.628,267.141 140.145 M125.247 141.399 C 125.247 141.502,126.196 142.525,127.357 143.673 C 129.575 145.868,129.664 146.014,129.136 146.606 C 128.856 146.920,128.876 146.923,129.268 146.626 C 130.006 146.067,129.854 145.794,127.488 143.441 C 126.256 142.215,125.247 141.296,125.247 141.399 M265.964 143.670 C 265.853 144.448,265.819 145.142,265.889 145.213 C 266.084 145.407,266.374 143.597,266.264 142.882 C 266.204 142.498,266.088 142.805,265.964 143.670 M265.425 147.011 C 265.334 147.247,265.260 147.815,265.259 148.275 C 265.258 148.734,265.151 149.525,265.020 150.033 C 264.713 151.227,264.392 153.889,264.578 153.704 C 264.657 153.625,264.847 152.737,265.000 151.731 C 265.154 150.725,265.388 149.194,265.521 148.329 C 265.766 146.743,265.728 146.222,265.425 147.011 M128.512 147.462 C 127.536 149.117,127.535 149.122,128.232 148.319 C 128.873 147.582,129.096 147.132,128.822 147.132 C 128.758 147.132,128.619 147.281,128.512 147.462 M125.455 152.208 C 123.199 155.607,123.060 155.834,123.235 155.834 C 123.373 155.834,124.984 153.514,124.984 153.316 C 124.984 153.251,125.382 152.634,125.870 151.945 C 127.116 150.184,127.702 149.242,127.552 149.242 C 127.482 149.242,126.538 150.577,125.455 152.208 M135.386 156.427 C 131.829 161.823,131.566 162.240,131.657 162.331 C 131.707 162.382,132.972 160.555,134.467 158.272 C 135.963 155.988,137.234 154.066,137.291 154.000 C 137.439 153.832,153.988 170.406,153.988 170.722 C 153.988 170.863,153.407 171.576,152.698 172.305 C 151.988 173.035,151.336 173.929,151.250 174.291 C 151.095 174.942,151.097 174.942,151.422 174.252 C 151.603 173.868,152.384 172.885,153.158 172.067 L 154.565 170.579 146.133 162.152 C 141.496 157.517,137.581 153.724,137.434 153.724 C 137.287 153.724,136.366 154.941,135.386 156.427 M264.100 155.636 C 263.785 157.709,263.707 158.844,263.913 158.339 C 264.167 157.716,264.529 154.779,264.352 154.779 C 264.285 154.779,264.171 155.165,264.100 155.636 M122.711 156.427 C 121.803 157.967,121.744 158.099,122.206 157.548 C 122.742 156.910,123.204 156.098,123.031 156.098 C 122.962 156.098,122.818 156.246,122.711 156.427 M238.631 158.500 C 238.632 158.701,238.862 159.215,239.143 159.641 C 239.424 160.067,239.583 160.530,239.496 160.670 C 239.409 160.811,239.475 160.841,239.643 160.737 C 240.085 160.464,240.025 160.191,239.288 159.105 C 238.926 158.571,238.630 158.298,238.631 158.500 M119.011 162.096 C 117.909 163.800,116.889 165.343,116.745 165.524 C 116.600 165.705,116.552 165.854,116.640 165.854 C 116.727 165.854,117.743 164.430,118.897 162.690 C 121.470 158.813,121.356 158.998,121.169 158.998 C 121.084 158.998,120.113 160.392,119.011 162.096 M263.461 159.690 C 263.435 160.143,263.352 160.915,263.276 161.404 C 263.149 162.219,263.161 162.239,263.420 161.644 C 263.576 161.287,263.659 160.516,263.605 159.930 C 263.525 159.065,263.498 159.020,263.461 159.690 M237.033 163.151 L 236.124 164.140 237.113 163.231 C 238.033 162.385,238.223 162.162,238.021 162.162 C 237.977 162.162,237.532 162.607,237.033 163.151 M130.313 164.206 C 129.071 166.054,128.876 166.381,129.017 166.381 C 129.118 166.381,130.982 163.768,131.416 163.019 C 131.972 162.058,131.192 162.897,130.313 164.206 M262.788 163.886 C 262.698 164.122,262.637 164.809,262.654 165.414 C 262.685 166.502,262.688 166.499,262.922 165.088 C 263.159 163.659,263.095 163.086,262.788 163.886 M115.313 167.756 C 114.741 168.668,114.051 169.769,113.779 170.204 C 113.507 170.639,113.410 170.877,113.564 170.732 C 114.035 170.286,116.572 166.320,116.459 166.206 C 116.400 166.147,115.884 166.845,115.313 167.756 M127.032 169.216 C 126.098 170.630,125.240 171.947,125.126 172.144 C 124.929 172.483,159.588 207.515,160.120 207.515 C 160.377 207.515,163.217 205.639,163.217 205.470 C 163.217 205.401,162.901 205.552,162.515 205.805 C 162.128 206.058,161.405 206.506,160.907 206.799 L 160.001 207.334 142.874 190.219 C 133.454 180.806,125.647 172.927,125.524 172.709 C 125.367 172.431,125.765 171.612,126.870 169.941 C 128.624 167.290,129.010 166.645,128.843 166.645 C 128.781 166.645,127.965 167.802,127.032 169.216 M262.270 167.351 C 261.979 168.897,261.789 170.726,261.934 170.584 C 262.115 170.406,262.640 166.837,262.505 166.702 C 262.453 166.650,262.347 166.942,262.270 167.351 M113.035 171.492 C 112.935 171.750,112.862 172.159,112.871 172.401 C 112.882 172.693,112.974 172.626,113.142 172.205 C 113.282 171.854,113.356 171.445,113.306 171.295 C 113.256 171.145,113.134 171.233,113.035 171.492 M261.437 172.709 C 261.335 173.453,261.307 174.117,261.375 174.185 C 261.443 174.253,261.580 173.698,261.679 172.951 C 261.778 172.204,261.806 171.540,261.741 171.475 C 261.676 171.410,261.539 171.966,261.437 172.709 M112.891 174.028 C 112.891 174.245,112.993 174.661,113.118 174.951 C 113.261 175.283,113.345 175.332,113.345 175.082 C 113.345 174.865,113.243 174.450,113.118 174.160 C 112.975 173.827,112.891 173.778,112.891 174.028 M260.952 175.789 C 260.640 177.446,260.476 179.159,260.644 178.993 C 260.838 178.802,261.327 175.280,261.181 175.134 C 261.132 175.085,261.029 175.379,260.952 175.789 M150.890 176.269 C 150.893 176.849,150.947 177.055,151.010 176.727 C 151.074 176.399,151.071 175.925,151.005 175.673 C 150.939 175.421,150.888 175.689,150.890 176.269 M113.645 176.137 C 113.771 176.355,123.523 186.159,135.316 197.925 C 155.915 218.477,157.748 220.191,158.412 219.527 C 158.491 219.448,158.150 219.310,157.656 219.219 C 156.899 219.080,153.339 215.638,135.086 197.398 C 123.168 185.487,113.519 175.920,113.645 176.137 M151.109 177.990 C 151.057 178.978,153.909 181.841,154.428 181.322 C 154.517 181.234,154.305 181.052,153.959 180.917 C 153.173 180.612,151.872 179.258,151.449 178.306 C 151.274 177.911,151.121 177.769,151.109 177.990 M160.329 179.486 C 159.684 180.139,158.867 180.783,158.513 180.917 C 158.159 181.052,157.936 181.227,158.016 181.308 C 158.256 181.548,159.282 180.886,160.645 179.611 L 161.929 178.410 170.285 186.768 L 178.642 195.126 177.851 195.774 C 177.416 196.130,176.912 196.426,176.730 196.431 C 176.549 196.436,176.401 196.573,176.401 196.734 C 176.401 196.923,176.612 196.891,176.994 196.643 C 177.320 196.431,177.854 196.092,178.181 195.890 C 179.179 195.272,179.026 195.085,170.507 186.539 C 161.428 177.432,161.981 177.815,160.329 179.486 M260.168 180.890 C 260.073 181.249,260.004 181.839,260.017 182.202 C 260.033 182.675,260.108 182.569,260.283 181.824 C 260.551 180.682,260.448 179.845,260.168 180.890 M155.509 181.602 C 155.983 181.660,156.695 181.659,157.091 181.599 C 157.487 181.539,157.100 181.491,156.229 181.492 C 155.359 181.494,155.035 181.543,155.509 181.602 M109.634 182.945 C 109.386 183.044,110.123 183.125,111.272 183.125 C 112.422 183.125,113.159 183.044,112.910 182.945 C 112.662 182.847,111.925 182.766,111.272 182.766 C 110.620 182.766,109.882 182.847,109.634 182.945 M107.100 184.691 C 104.071 187.593,87.174 204.601,86.987 204.935 C 86.881 205.125,89.297 202.760,92.356 199.680 C 95.415 196.600,100.370 191.644,103.368 188.668 C 108.433 183.639,110.544 181.390,107.100 184.691 M114.295 183.891 C 114.725 184.255,115.299 184.825,115.571 185.157 C 115.842 185.489,115.977 185.583,115.870 185.366 C 115.559 184.732,114.612 183.757,114.041 183.482 C 113.744 183.340,113.856 183.519,114.295 183.891 M259.617 184.377 C 259.303 186.450,259.224 187.585,259.430 187.080 C 259.684 186.457,260.046 183.520,259.869 183.520 C 259.802 183.520,259.689 183.906,259.617 184.377 M116.150 188.134 C 116.150 189.339,116.237 190.188,116.344 190.021 C 116.599 189.620,116.603 186.223,116.348 186.066 C 116.239 185.999,116.150 186.929,116.150 188.134 M258.847 189.161 C 258.741 190.015,258.708 190.767,258.774 190.833 C 258.949 191.008,259.264 188.674,259.142 188.100 C 259.085 187.829,258.952 188.306,258.847 189.161 M105.031 201.603 C 99.060 207.610,94.251 212.525,94.344 212.525 C 94.584 212.525,114.892 192.240,115.528 191.365 C 115.817 190.966,116.017 190.649,115.970 190.660 C 115.924 190.672,111.002 195.596,105.031 201.603 M258.304 192.788 C 257.952 195.086,257.867 196.011,258.020 195.858 C 258.212 195.666,258.682 192.147,258.536 192.001 C 258.482 191.948,258.378 192.302,258.304 192.788 M257.656 196.869 C 257.633 197.177,257.551 197.830,257.475 198.319 C 257.348 199.134,257.360 199.154,257.619 198.559 C 257.775 198.202,257.856 197.549,257.800 197.109 C 257.740 196.636,257.681 196.538,257.656 196.869 M171.909 199.629 C 168.378 201.933,166.361 203.369,167.699 202.627 C 168.424 202.225,175.738 197.441,175.992 197.202 C 176.636 196.600,175.680 197.168,171.909 199.629 M125.602 199.279 C 125.435 199.385,126.283 199.473,127.488 199.473 C 128.693 199.473,129.624 199.384,129.557 199.275 C 129.400 199.020,126.003 199.024,125.602 199.279 M207.844 199.489 C 207.388 199.983,207.430 200.267,207.901 199.876 C 208.236 199.598,208.299 199.939,208.373 202.414 L 208.458 205.274 208.514 202.323 C 208.570 199.349,208.449 198.835,207.844 199.489 M110.026 214.169 C 97.306 226.882,94.265 230.147,94.721 230.603 C 94.779 230.662,95.023 230.266,95.263 229.725 C 95.551 229.074,100.630 223.815,110.285 214.173 C 118.308 206.160,124.811 199.604,124.736 199.604 C 124.661 199.604,118.041 206.158,110.026 214.169 M131.011 200.622 C 132.509 202.120,132.937 203.868,132.342 206.065 C 132.022 207.245,104.918 234.772,102.585 236.286 C 101.350 237.087,101.311 237.310,102.518 236.668 C 103.823 235.975,132.047 207.473,132.489 206.403 C 133.439 204.103,132.455 200.903,130.472 199.842 C 130.187 199.690,130.429 200.040,131.011 200.622 M256.836 200.461 C 256.577 201.112,218.256 239.446,217.403 239.909 C 216.903 240.180,216.901 240.195,217.375 240.203 C 217.985 240.213,256.933 201.274,257.153 200.435 C 257.347 199.689,257.138 199.707,256.836 200.461 M205.821 201.466 C 205.542 201.747,205.434 201.978,205.582 201.978 C 205.730 201.978,206.066 201.740,206.328 201.450 C 206.940 200.774,206.493 200.788,205.821 201.466 M204.654 202.664 C 204.458 202.886,204.350 203.119,204.414 203.183 C 204.477 203.247,204.745 203.061,205.008 202.770 C 205.272 202.479,205.380 202.246,205.249 202.251 C 205.117 202.257,204.850 202.443,204.654 202.664 M165.458 203.823 C 164.588 204.402,163.757 204.920,163.612 204.973 C 163.467 205.026,163.414 205.142,163.495 205.230 C 163.638 205.387,167.172 203.143,167.172 202.895 C 167.172 202.690,167.111 202.723,165.458 203.823 M185.498 203.469 L 184.707 204.151 185.639 203.605 L 186.571 203.059 188.095 204.523 C 188.933 205.328,189.672 205.934,189.737 205.869 C 189.871 205.734,186.720 202.764,186.459 202.778 C 186.365 202.783,185.933 203.094,185.498 203.469 M203.335 203.983 C 203.139 204.204,203.031 204.438,203.095 204.501 C 203.159 204.565,203.427 204.380,203.690 204.089 C 203.953 203.798,204.061 203.564,203.930 203.570 C 203.799 203.575,203.531 203.761,203.335 203.983 M182.861 205.205 C 181.991 205.789,179.880 207.155,178.170 208.242 C 176.460 209.329,175.124 210.281,175.202 210.359 C 175.279 210.436,175.551 210.320,175.806 210.101 C 176.061 209.882,178.108 208.537,180.356 207.112 C 185.056 204.133,184.694 204.380,184.553 204.248 C 184.492 204.191,183.731 204.622,182.861 205.205 M201.362 205.977 C 200.806 206.557,200.399 207.078,200.456 207.136 C 200.513 207.193,201.082 206.709,201.719 206.059 C 202.357 205.410,202.765 204.888,202.626 204.900 C 202.487 204.912,201.918 205.397,201.362 205.977 M208.654 206.987 C 208.654 207.930,208.702 208.316,208.760 207.844 C 208.819 207.373,208.819 206.602,208.760 206.131 C 208.702 205.659,208.654 206.045,208.654 206.987 M86.355 206.460 C 86.255 206.916,86.232 207.348,86.304 207.421 C 86.377 207.493,86.518 207.180,86.618 206.724 C 86.718 206.268,86.741 205.836,86.669 205.763 C 86.596 205.691,86.455 206.004,86.355 206.460 M190.639 206.836 C 190.639 208.257,194.974 210.226,196.836 209.651 C 197.504 209.444,197.347 209.402,195.830 209.383 C 193.753 209.357,193.289 209.164,191.760 207.693 C 191.144 207.099,190.639 206.714,190.639 206.836 M86.249 208.366 C 86.211 209.024,87.023 210.943,87.338 210.943 C 87.501 210.943,87.487 210.799,87.301 210.576 C 87.134 210.374,86.835 209.692,86.636 209.060 C 86.437 208.428,86.263 208.116,86.249 208.366 M208.864 213.338 C 208.881 215.428,208.986 218.326,209.097 219.776 C 209.221 221.404,209.247 219.992,209.165 216.084 C 209.091 212.604,208.986 209.707,208.932 209.646 C 208.878 209.586,208.847 211.247,208.864 213.338 M173.426 211.317 C 171.870 212.394,171.499 212.772,172.647 212.111 C 173.533 211.601,175.054 210.430,174.819 210.439 C 174.746 210.442,174.120 210.837,173.426 211.317 M87.541 211.320 C 87.541 211.383,87.927 211.696,88.398 212.016 L 89.255 212.599 88.542 211.902 C 87.871 211.249,87.541 211.057,87.541 211.320 M89.651 212.788 C 89.868 212.929,90.224 213.044,90.442 213.044 C 90.793 213.044,90.793 213.016,90.442 212.788 C 90.224 212.648,89.868 212.533,89.651 212.533 C 89.299 212.533,89.299 212.561,89.651 212.788 M168.011 214.875 C 165.539 216.526,164.312 217.438,165.326 216.871 C 166.469 216.231,170.864 213.312,170.864 213.192 C 170.864 212.969,170.864 212.969,168.011 214.875 M142.823 216.150 C 142.755 216.259,143.508 216.348,144.496 216.348 C 145.483 216.348,146.236 216.259,146.169 216.150 C 146.102 216.042,145.349 215.953,144.496 215.953 C 143.643 215.953,142.890 216.042,142.823 216.150 M131.006 227.225 C 125.111 233.134,120.099 238.349,119.867 238.814 C 119.426 239.697,119.304 241.951,119.665 242.520 C 119.781 242.703,119.826 242.160,119.764 241.313 C 119.678 240.122,119.775 239.541,120.191 238.740 C 120.723 237.717,140.943 217.351,141.991 216.782 C 142.360 216.582,142.399 216.494,142.121 216.488 C 141.903 216.484,136.901 221.315,131.006 227.225 M147.237 216.987 C 147.656 217.263,148.285 217.826,148.635 218.237 C 149.119 218.807,149.203 218.846,148.989 218.402 C 148.698 217.799,147.132 216.479,146.712 216.482 C 146.581 216.483,146.817 216.710,147.237 216.987 M163.019 218.092 C 162.174 218.634,161.973 218.862,162.360 218.844 C 162.578 218.833,164.219 217.535,164.008 217.540 C 163.935 217.542,163.490 217.790,163.019 218.092 M160.976 219.258 C 160.313 219.577,160.292 219.613,160.844 219.480 C 161.206 219.393,161.616 219.216,161.753 219.087 C 162.095 218.768,161.908 218.809,160.976 219.258 M149.236 223.252 C 148.908 224.276,130.454 243.201,128.042 244.987 C 126.463 246.156,123.209 246.121,121.529 244.917 C 120.686 244.312,120.513 244.248,120.896 244.680 C 122.080 246.017,125.835 246.554,127.567 245.634 C 130.138 244.268,150.332 223.019,149.679 222.366 C 149.613 222.300,149.413 222.698,149.236 223.252 M209.567 230.850 C 209.637 233.751,209.767 236.264,209.857 236.436 C 210.076 236.855,209.906 229.445,209.647 227.291 C 209.523 226.264,209.491 227.692,209.567 230.850 M95.458 234.880 C 95.752 235.502,97.693 237.047,98.180 237.047 C 98.331 237.047,97.926 236.711,97.279 236.301 C 96.633 235.891,95.894 235.268,95.638 234.917 C 95.199 234.314,95.189 234.312,95.458 234.880 M99.341 237.233 C 99.667 237.296,100.201 237.296,100.527 237.233 C 100.854 237.170,100.587 237.119,99.934 237.119 C 99.281 237.119,99.015 237.170,99.341 237.233 M210.153 237.186 C 210.149 238.069,212.781 240.570,213.236 240.115 C 213.328 240.023,213.274 239.947,213.116 239.947 C 212.671 239.947,211.187 238.609,210.643 237.717 C 210.374 237.276,210.153 237.037,210.153 237.186 M213.934 240.537 C 214.102 240.643,214.654 240.730,215.162 240.730 C 215.669 240.730,216.221 240.643,216.389 240.537 C 216.556 240.430,216.004 240.343,215.162 240.343 C 214.319 240.343,213.767 240.430,213.934 240.537 " stroke="none" fill="#a09dac" fill-rule="evenodd"></path></g></svg>